<?xml version="1.0" encoding="utf-8"?>
<!-- Generator: Adobe Illustrator 22.1.0, SVG Export Plug-In . SVG Version: 6.00 Build 0)  -->
<svg version="1.1" id="Layer_1" xmlns="http://www.w3.org/2000/svg" xmlns:xlink="http://www.w3.org/1999/xlink" x="0px" y="0px"
	 width="20px" height="20px" viewBox="0 0 20 20" style="enable-background:new 0 0 20 20;" xml:space="preserve">
<style type="text/css">
	.st0{fill:#BCB828;}
	.st1{fill:#FFFFFF;}
</style>
<path class="st0" d="M0,10c0,5.5,4.5,10,10,10s10-4.5,10-10S15.5,0,10,0l0,0C4.5,0,0,4.5,0,10"/>
<path class="st1" d="M5.6,10.7c0,0,0-0.1-0.2-0.2c-0.1-0.1-0.4-0.1-0.6-0.2c-0.2-0.1-0.3-0.3-0.5-0.3c-0.5-0.1-1-0.2-1.5-0.4
	C2.2,9.4,1.3,9,1.3,8.9c0-0.2,0-0.1-0.1-0.1C1.1,8.7,1,8.5,1.3,8.3c0.3-0.1,0.3-0.1,0.4,0s0.6,0,1,0.1c0.2,0,0.4,0,0.6-0.1
	C3.4,8.2,3.6,8,3.8,8c0.2,0,0.1,0.1,0.3,0.1s0.5,0,0.5,0.1s0.2,0,0.3,0.1C5,8.4,5,8.3,5.1,8.4c0.1,0.1,0.2,0,0.3,0.1
	s0.2,0.1,0.2,0.1c0.1,0.1,0.2,0.1,0.3,0.1c0.1,0,0.1,0,0.2,0.1c0.1,0.1,0.1,0,0.2,0c0.1,0,0.1,0,0.4-0.1c0.9-0.2,1.7-0.3,2.6-0.3
	c1.5,0,2.1,0,2.9,0.2c0.5,0.2,1,0.3,1.5,0.4c0.1,0,0.3,0,0.4,0c0.2,0,0.2-0.1,0.3-0.1c0.2,0.1,0.1,0.1,0.2,0C14.8,8.9,14.9,9,15,9.1
	c0.1,0,0.1-0.1,0.2-0.1c0.2,0,0.1,0.1,0.2,0.1c0.1,0,0.4-0.1,0.5,0c0.1,0.1,0.2,0.1,0.3,0.1c0.1,0,0.2-0.1,0.3,0
	c0.1,0.1,0.1,0.2,0.2,0.2s0.3-0.1,0.3,0.1s0.1,0.1,0.2,0.1c0.1,0,0.1,0.2,0.2,0.3c0.2,0.3,0.3,0.5,0.5,0.8c0.2,0.4,0.6,0.6-0.6,1.3
	c-1.2,0.7-3.3,1-4.2,0.8c-0.9-0.2-0.9-0.4-0.7-0.4c0.2,0.1,0.2,0.1,0.2,0c0.1-0.1,0.2-0.1,0.3,0c0.1,0.1,0.1,0,0.2-0.1
	c0.1-0.1,0.2,0.1,0.3,0.1c0.1,0,0-0.2,0.1-0.2c0.1,0,0-0.1,0.2-0.1c0.2,0,0.3,0.1,0.3,0c0-0.1,0.1-0.1,0.2-0.1
	c0.1,0.1,0-0.1,0.2-0.1c0.2,0,0-0.1,0.2-0.1c0.2,0,0.2,0.1,0.3,0c0.1-0.1-0.1-0.2,0.2-0.2s0.3,0,0.3-0.1c-0.1-0.1,0.1-0.1,0.3-0.1
	s0.2-0.1,0.1-0.2c-0.1-0.1,0.2-0.2,0.3-0.1c0.2,0.1,0-0.2,0.1-0.3c0.1-0.1,0-0.1-0.2-0.1s-1.3-0.1-1.7-0.1s-1.8,0-2.3,0
	s-0.4,0.1-0.9,0.1c-0.5,0-0.6-0.2-0.6-0.1c0,0.1,0.2,0.4-0.4,0.4S9.4,11,9.1,11c-0.3,0.1-0.6,0.2-0.9,0.3c-0.2,0-0.1-0.1,0-0.1
	s-0.2,0,0.1-0.1s0.4-0.2,0.4-0.2c-0.2-0.1-0.5-0.1-0.7-0.1c-0.4,0-0.9-0.1-1.1-0.1c-0.5,0,0.1,0.2-0.5,0.3c-0.4,0.1-0.7,0.2-1,0.4
	c-0.1,0.1-0.1,0.4-0.2,0.3c-0.1-0.1,0-0.2-0.1-0.1c-0.1,0.1-0.3,0.4-0.4,0.3c0-0.1,0-0.2,0-0.2c0,0-0.1,0.1-0.3,0.1s-0.1,0,0-0.2
	s-0.3,0,0-0.1c0.2-0.1,0.3-0.2,0.5-0.3C5,11.2,5.1,11.1,5.2,11C5.5,10.8,5.7,10.7,5.6,10.7L5.6,10.7z"/>
<circle class="st0" cx="4" cy="8.5" r="0.3"/>
</svg>
