<svg xmlns="http://www.w3.org/2000/svg" viewBox="0 0 17.26 7.95"><defs><style>.cls-1{fill:#fff;}</style></defs><title>icon__shark</title><g id="Layer_2" data-name="Layer 2"><g id="Map_Tracker_Nav" data-name="Map &amp; Tracker Nav"><path class="cls-1" d="M2.1,5.31a.37.37,0,0,1-.36-.37.36.36,0,1,1,.72,0,.37.37,0,0,1-.36.37m15.16-3A4.15,4.15,0,0,0,14,4.42a19.32,19.32,0,0,1-4.5-1.13C8.65,3,8.32,1.55,9,0,7.6.19,6.68,1.47,5.93,2.54S.66,3.68,0,5.26c0,0,.83,1.41,5.19,1.41a2,2,0,0,1-.09-.81l.14,0,.15,0a1.63,1.63,0,0,0,.4,1.24,2.87,2.87,0,0,0,2.34.63A1.37,1.37,0,0,1,7.65,6.5a18.55,18.55,0,0,0,4.15-.4,2.18,2.18,0,0,0,.84.36.76.76,0,0,1,1.18-.31c.36.25,1.23,1.8,2.25,1.8a4.85,4.85,0,0,1-.52-2.09c0-1,1.71-3.51,1.71-3.51"/></g></g></svg>
