<?xml version="1.0" encoding="utf-8"?>
<!-- Generator: Adobe Illustrator 22.1.0, SVG Export Plug-In . SVG Version: 6.00 Build 0)  -->
<svg version="1.1" id="Layer_1" xmlns="http://www.w3.org/2000/svg" xmlns:xlink="http://www.w3.org/1999/xlink" x="0px" y="0px"
	 width="20px" height="20px" viewBox="0 0 20 20" style="enable-background:new 0 0 20 20;" xml:space="preserve">
<style type="text/css">
	.st0{fill:#479E46;}
	.st1{fill:#FFFFFF;}
</style>
<path class="st0" d="M20,10c0,5.5-4.5,10-10,10S0,15.5,0,10S4.5,0,10,0c0,0,0,0,0,0C15.5,0,20,4.5,20,10"/>
<path class="st1" d="M7.3,7.5c-2.3,1-0.1,7.3,10,2.7C17.3,10.2,12.3,5.5,7.3,7.5"/>
<path class="st1" d="M7.5,11.2c-0.4-0.3-0.8-0.7-1-1.2c-0.4,0.4-0.9,1-0.9,1.2c-0.1,1.7,1.2,3.2,2.9,3.4c0.1,0,0.2,0,0.2,0
	C10.5,14.6,6.6,13,7.5,11.2"/>
<path class="st1" d="M15.8,11.6c-0.4,0-0.6-0.1-0.6-0.2c-0.6,0.2-1.2,0.4-1.7,0.5c0.3,1.3,1.4,2.2,2.7,2.3
	C17.3,14.1,16.9,11.6,15.8,11.6"/>
<path class="st1" d="M4.2,7.8c-0.2,0-0.3-0.1-0.3-0.3l0,0c0-0.2,0.1-0.3,0.3-0.3c0.2,0,0.3,0.1,0.3,0.3C4.5,7.6,4.4,7.8,4.2,7.8
	 M6.2,8.7c0-0.5,0.3-1,0.7-1.2C6.3,7,5.6,6.8,4.9,6.7c-1.3,0-2,0-2.1,1.1s1.8,0.1,3.5,1.5C6.2,9.1,6.2,8.9,6.2,8.7"/>
</svg>
