<svg xmlns="http://www.w3.org/2000/svg" viewBox="0 0 208.82 86.06"><defs><style>.cls-1{fill:#eee;}</style></defs><title>Icon_Hammerhead.Shark</title><g id="Layer_2" data-name="Layer 2"><g id="Animal_Profle" data-name="Animal Profle"><path class="cls-1" d="M208.82,51.83l-.11,1.26c-.34.85-1.4,1.19-1.43,2.3,0,1.77-.75,2.57-2.48,3a11.39,11.39,0,0,1-3.4.26c-1.62-.09-3.14-.83-4.72-.85a7.28,7.28,0,0,1-5.61-2.94c-2-2.36-4.23-4.57-7.3-5.71a5.15,5.15,0,0,0-4.81.17A41.76,41.76,0,0,1,170.91,53a122.89,122.89,0,0,1-22.74,5,8,8,0,0,0-3,.92,2,2,0,0,0-1.09,2.07,113.31,113.31,0,0,1,.05,13.29c-.21,4.48-2.52,7.8-5.48,10.79-1.67,1.69-2.93,1.3-3.73-.93-1.06-2.94-2.1-5.89-3.18-8.82a22.75,22.75,0,0,0-10.28-12.53,1.65,1.65,0,0,1-.7-.53c-.69-1.24-1.85-1.11-3-1.06-.72,0-1.43.12-2.15.17-7.32.56-14.62,1.43-22,1.82a5.07,5.07,0,0,0-4.9,3.75A40.87,40.87,0,0,1,85.62,75,10.94,10.94,0,0,1,84,77.72c-.7.81-1.19.71-1.48-.32-.4-1.42-.81-2.84-1.14-4.28a10.08,10.08,0,0,0-4.44-6.52,21.11,21.11,0,0,1-2-1.55,5.52,5.52,0,0,0-3.7-1.37c-1.94,0-3.88-.2-5.82-.26a4,4,0,0,0-3.18,1.29,22.23,22.23,0,0,1-6.15,4.62,5.16,5.16,0,0,1-3.54.67c-.38-.08-.81-.19-.87-.61s.38-.49.65-.68c1-.7,2.28-1.46,2.15-2.75S53,64,51.84,63.45A5.73,5.73,0,0,0,50.53,63c-1.82-.36-3.65-.71-5.48-1a6.45,6.45,0,0,0-5.32,1.4c-2.16,1.75-4.51,3.27-6.76,4.93a40.34,40.34,0,0,1-4.43,3.36,62.39,62.39,0,0,1-12.65,5.51L14.12,77c0-.66.57-.9,1-1.19A9.15,9.15,0,0,0,17,74.49a74.76,74.76,0,0,0,6.91-8.27C26.77,62,27.54,62,24,56.91A206.64,206.64,0,0,0,7.3,35.71c-1-1.14-2.6-1.78-3.18-3.36A.55.55,0,0,0,3.49,32c-1.08.27-1.39-.47-1.72-1.24S1,29.18.65,28.36c-.19-.5-1-1-.46-1.52S1.4,26.72,2,27a7.32,7.32,0,0,1,1.57.82,18.5,18.5,0,0,0,3.39,2c12.22,6,24.32,12.23,35,20.9a2.29,2.29,0,0,0,2,.39c4-.66,7.5-2.45,11.11-4.12,2.68-1.25,4.43-2.73,4.79-5.78.19-1.57,1.07-1.83,2.58-1.18a9.65,9.65,0,0,1,3,2.47A1.94,1.94,0,0,0,68,43c6.24-2.72,12.48-5.42,18.78-8s12.55-5.49,19.24-7.1a1.73,1.73,0,0,0,1-.85c3.84-5.55,5.78-11.61,4.9-18.42a32.27,32.27,0,0,1-.26-5.81A3.26,3.26,0,0,1,113,0l2.53.22a17.17,17.17,0,0,1,7,8.38c1.76,4.3,3.73,8.51,5.54,12.79a2.85,2.85,0,0,0,2.33,1.88,21.66,21.66,0,0,0,3.41.26,104.82,104.82,0,0,1,19.06,1c5.5.87,11.06,1.34,16.54,2.36,1.16.21,1.44-.14,1.08-1.23a10.65,10.65,0,0,0-.74-1.61,48.45,48.45,0,0,1-2.46-5.14c-1-2.72-.69-3.47,2.09-4.4.63-.21,1.31-.29,2-.44a9.25,9.25,0,0,0,1.83-.46c4.06-1.87,7.65-1.08,10.86,1.86a8,8,0,0,0,2.75,1.76,11,11,0,0,1,5.89,5.32,17,17,0,0,0,5.67,5.66,7.69,7.69,0,0,1,3.23,4.07,14.2,14.2,0,0,0,2.56,5.29A8.8,8.8,0,0,1,206.4,44a7.74,7.74,0,0,0,.33,2.24A36.58,36.58,0,0,0,208.82,51.83Z"/></g></g></svg>