<svg xmlns="http://www.w3.org/2000/svg" viewBox="0 0 16.76 21.79"><defs><style>.cls-1{fill:#fff;}</style></defs><title>icon__pin--outline</title><g id="Layer_2" data-name="Layer 2"><g id="Tracker_Button" data-name="Tracker Button"><path class="cls-1" d="M8.38,0A8.38,8.38,0,0,0,0,8.38c0,7.54,8.38,13.41,8.38,13.41s8.38-6.71,8.38-13.41A8.38,8.38,0,0,0,8.38,0m0,1.68a6.7,6.7,0,0,1,6.7,6.7c0,2.94-2,6-3.76,8.1a32.46,32.46,0,0,1-3,3.13C6.24,17.88,1.68,13.49,1.68,8.38a6.7,6.7,0,0,1,6.7-6.7"/><path class="cls-1" d="M8.38,10.89a2.51,2.51,0,1,1,2.51-2.51,2.51,2.51,0,0,1-2.51,2.51"/></g></g></svg>