<svg id="Layer_1" data-name="Layer 1" xmlns="http://www.w3.org/2000/svg" viewBox="0 0 15.56 16.31"><defs><style>.cls-1{fill:#fff;}</style></defs><title>icon</title><path class="cls-1" d="M7.78,15.4C7.29,15.22.85,12.64.85,7.06L3.17,8.87H1.61C2.38,10.37,4.29,13.1,6,13.1S7.11,5.27,7.11,5.27H5.79c-.74,0-1.35-.16-1.35-.86v0h6.68v0c0,.7-.61.86-1.35.86H8.45S7.94,13.1,9.61,13.1,13.18,10.37,14,8.87H12.39l2.32-1.81c0,5.58-6.44,8.16-6.93,8.34m2.6-5.69h2.09c-.87,1.29-2,2.39-2.71,2.53-.42-.69-.63-3-.51-6.12h.52c2,0,2.19-1.2,2.19-1.71V3.55H3.61v.78h0v.07c0,.51.21,1.71,2.19,1.71h.52c.12,3.08-.1,5.43-.51,6.12C5,12.1,4,11,3.09,9.71H5.17L0,5V7.06a8.81,8.81,0,0,0,3.59,6.85,15.07,15.07,0,0,0,3.89,2.28l.3.12.3-.12A14.91,14.91,0,0,0,12,13.91a8.79,8.79,0,0,0,3.6-6.85V5Z"/><path class="cls-1" d="M7.78,2.65a.88.88,0,0,1-.86-.88.86.86,0,1,1,1.72,0,.88.88,0,0,1-.86.88M7.78,0A1.75,1.75,0,0,0,6.05,1.77a1.73,1.73,0,1,0,3.46,0A1.75,1.75,0,0,0,7.78,0"/></svg>