<svg xmlns="http://www.w3.org/2000/svg" viewBox="0 0 11.02 11.57"><defs><style>.cls-1{fill:#fff;}</style></defs><title>icon__tagged-on</title><g id="Layer_2" data-name="Layer 2"><g id="Layer_2-2" data-name="Layer 2"><path class="cls-1" d="M6,6A.69.69,0,1,0,5,6s0,0,.05,0L4.22,11.3a2.06,2.06,0,0,0,1.29.27A2.06,2.06,0,0,0,6.8,11.3L6,6S6,6,6,6Z"/><path class="cls-1" d="M5.51,0A5.51,5.51,0,0,0,3.68,10.7l.09-.59A4.91,4.91,0,1,1,9,9a4.88,4.88,0,0,1-1.74,1.11l.08.58A5.61,5.61,0,0,0,9.41,9.41,5.52,5.52,0,0,0,5.51,0Z"/><path class="cls-1" d="M8.53,5.51A3,3,0,0,0,3.38,3.38,3,3,0,0,0,4,8.12l0-.33a2.69,2.69,0,1,1,3.34-.37,2.8,2.8,0,0,1-.48.37l0,.34a2.9,2.9,0,0,0,.66-.49A3,3,0,0,0,8.53,5.51Z"/></g></g></svg>