<svg xmlns="http://www.w3.org/2000/svg" viewBox="0 0 71.59 20.2"><defs><style>.cls-1{fill:#fff;}</style></defs><title>icon__alligator</title><g id="Layer_2" data-name="Layer 2"><g id="Layer_1-2" data-name="Layer 1"><path class="cls-1" d="M18.58,11.47c-.21,0-.21-.46-.64-.71s-1.63-.5-2.62-.85-1.24-1.07-2-1.28A45.8,45.8,0,0,1,6.83,6.86C4.56,5.86.63,4.2.73,3.56S.81,3.14.42,3-.43,1.86.78,1.36,2,.9,2.41,1.22s2.63.18,4,.21a4.44,4.44,0,0,0,2.34-.21C9.6.9,10.31-.16,11.09,0s.6.28,1.24.32,2.31,0,2.31.28.95.21,1.24.53.46,0,.81.32.78,0,1.1.46.64.21,1,.5.85.25,1.13.42.53.11.82.32.56.07,1,.14S22,3.21,23.23,3A57.2,57.2,0,0,1,34.29,1.61c6.21-.18,8.66-.18,12.34,1A37.39,37.39,0,0,0,53,4.13a6.86,6.86,0,0,0,1.81.15c.76-.14,1-.46,1.35-.22.64.39.6.29.92,0s.64.28,1.06.32.32-.36,1-.36.57.46,1,.57,1.63-.5,2.09,0A1.31,1.31,0,0,0,63.63,5c.39-.17,1-.53,1.21,0s.39,1,1,.71,1.36-.33,1.36.21.25.57.71.6.32.64.88,1.32a15.61,15.61,0,0,1,1.92,3.43c.67,1.53,2.52,2.34-2.63,5.39s-13.88,4.11-17.65,3.3-3.76-1.7-3-1.49.74.28,1,0a.92.92,0,0,1,1.08-.09c.31.25.46-.14,1-.39s1,.35,1.28.25,0-.78.53-.64.14-.35.85-.28,1.42.24,1.32-.11.46-.53.81-.32.11-.39.92-.39.18-.53.92-.6.71.25,1.21,0-.39-.85.78-.85,1.38,0,1.14-.32.6-.6,1.13-.6.89-.43.57-.64.71-.68,1.42-.36.14-.64.56-1.17-.07-.35-.74-.39-5.64-.35-7.34-.35S48.34,11,46.17,11s-1.59.57-3.76.43-2.62-.89-2.41-.32,1,1.81-1.66,1.84-3.59-.32-5.08-.21a19.92,19.92,0,0,0-3.79,1.13c-.82.18-.43-.21,0-.39s-.7.18.29-.46,1.7-.81,1.84-1a11.59,11.59,0,0,0-3-.24c-1.63-.07-3.72-.28-4.61-.25-2.23.07.5.64-2.2,1.35a12.4,12.4,0,0,0-4.25,1.8c-.43.29-.57,1.49-.78,1.24s.07-.92-.39-.53-1.46,1.56-1.6,1.35,0-.67-.07-.82-.56.43-1.06.39-.5-.1,0-.63-1.21.07,0-.54a6.1,6.1,0,0,0,2-1.24,5.18,5.18,0,0,1,1.46-1.34c1.1-.75,2.09-1.14,1.45-1.17Z"/></g></g></svg>