<svg xmlns="http://www.w3.org/2000/svg" viewBox="0 0 18.5 15.81"><defs><style>.cls-1{fill:#fff;}</style></defs><title>icon__track--white</title><g id="Layer_2" data-name="Layer 2"><g id="Layer_2-2" data-name="Layer 2"><path class="cls-1" d="M16,9.06a1.24,1.24,0,1,1,1.24-1.24A1.24,1.24,0,0,1,16,9.06m-13.56,0a1.24,1.24,0,1,1,0-2.47,1.24,1.24,0,0,1,0,2.47M16,5.36a2.46,2.46,0,0,0-2.38,1.87c-1.91.25-2.51,2.57-3,4.46-.36,1.42-.74,2.88-1.44,2.88-.45,0-.56-.16-.61-.22C8,13.52,9,10.59,9.76,8.24c1-3.11,2-6.05,1-7.46A2,2,0,0,0,9,0c-1.51,0-2,1.84-2.4,3.63S5.73,6.9,4.83,7.16a2.46,2.46,0,1,0,0,1.26c1.91-.24,2.49-2.59,3-4.5.3-1.19.67-2.69,1.21-2.69a.82.82,0,0,1,.73.27c.65.9-.36,3.92-1.17,6.35-1,3.16-1.95,5.88-1,7.22a1.85,1.85,0,0,0,1.61.74c1.66,0,2.16-1.94,2.64-3.81s.92-3.25,1.82-3.5A2.46,2.46,0,1,0,16,5.36"/></g></g></svg>