<svg id="Layer_1" data-name="Layer 1" xmlns="http://www.w3.org/2000/svg" viewBox="0 0 16.92 12.94"><defs><style>.cls-1{fill:#051c3c;}</style></defs><title>icon</title><path class="cls-1" d="M16.55,3.45,8.7.05a.57.57,0,0,0-.48,0L.37,3.45a.62.62,0,0,0,0,1.13l.44.19V9.06a.68.68,0,0,0,0,1.22,6.08,6.08,0,0,0-.37,2.36v0H1.79v0a6.08,6.08,0,0,0-.37-2.36.69.69,0,0,0,.37-.61.7.7,0,0,0-.37-.61V5L8.22,8A.57.57,0,0,0,8.7,8l7.85-3.4a.62.62,0,0,0,0-1.13"/><path class="cls-1" d="M14,6.75,8.7,9.06a.57.57,0,0,1-.48,0L2.55,6.61v3.63a.42.42,0,0,0,.26.39l5.33,2.31a.44.44,0,0,0,.32,0l5.34-2.31a.42.42,0,0,0,.24-.46Z"/></svg>