<svg id="Layer_1" data-name="Layer 1" xmlns="http://www.w3.org/2000/svg" viewBox="0 0 14.72 11.79"><defs><style>.cls-1{fill:#051c3c;}</style></defs><title>icon</title><path class="cls-1" d="M8.75,3.63l5.93,2.26L8.75,8.15a18.53,18.53,0,0,0,.14-2.26,18.66,18.66,0,0,0-.14-2.26"/><path class="cls-1" d="M4.35,5.89a13.42,13.42,0,0,0-.72-4.36L0,0A14.62,14.62,0,0,1,1.22,5.89,14.67,14.67,0,0,1,0,11.79l3.63-1.53a13.44,13.44,0,0,0,.72-4.37"/><path class="cls-1" d="M7.81,5.9a16.15,16.15,0,0,0-.18-2.72L4.94,2.08a14.31,14.31,0,0,1,.52,3.81,14.38,14.38,0,0,1-.52,3.82L7.56,8.63A15.23,15.23,0,0,0,7.81,5.9"/></svg>