<svg id="Layer_1" data-name="Layer 1" xmlns="http://www.w3.org/2000/svg" viewBox="0 0 42.62 13.27"><defs><style>.cls-1{fill:#638c1c;}</style></defs><title>icon</title><path class="cls-1" d="M4.6,2.25V13.14H2.33V2.25H0V0H6.93V2.25Z"/><path class="cls-1" d="M13.85,0V11.75a1.41,1.41,0,0,1-1.39,1.39H9.08a1.4,1.4,0,0,1-1.39-1.39V0H10V10.87h1.63V0Z"/><path class="cls-1" d="M19.26,13.14l-.92-5.46h-.87v5.46H15.22V0H20a1.38,1.38,0,0,1,1.37,1.39V6.31a1.37,1.37,0,0,1-.79,1.24l.94,5.59ZM19.11,2.25H17.47V5.42h1.64Z"/><path class="cls-1" d="M26.91,2.25V13.14H24.64V2.25H22.31V0h6.93V2.25Z"/><path class="cls-1" d="M35.4,10.87v2.27H30V0h2.25V10.87Z"/><path class="cls-1" d="M42.45,10.87v2.27H36.3V0h6.15V2.25h-3.9V5.42h3.12V7.68H38.55v3.19Z"/></svg>