<svg xmlns="http://www.w3.org/2000/svg" viewBox="0 0 254.48 70.86"><defs><style>.cls-1{fill:#eee;}</style></defs><title>Icon_Whale.Shark</title><g id="Layer_2" data-name="Layer 2"><g id="Animal_Profle" data-name="Animal Profle"><path class="cls-1" d="M0,1.17C1.56,4.07,3.09,7,4.68,9.88,9.46,18.6,14.31,27.28,19,36A24.75,24.75,0,0,1,20.8,55.21c-1.37,4.7-.2,9.13.43,13.66.3,2.23,1.84,2.53,3.25,1.19a23.06,23.06,0,0,0,4.18-5.35c3.07-5.45,5.73-11.13,8.88-16.52,2.86-4.9,4.78-5.52,10.38-4.43a30.17,30.17,0,0,0,4.86.85c4.08.1,5.89,2.57,6.46,6.12.42,2.63,1.84,3,4,2.41a5.16,5.16,0,0,0,2.14-.81c5.14-4.54,11.23-3.36,17.2-3,4,.25,8.11.38,12.16.57,4.53.2,5.76,1.21,5.79,5.63,0,2.09.88,2.61,2.53,2.31,2.91-.51,6-.77,8.63-1.92a33.7,33.7,0,0,1,15-2.67q14,.55,27.94,1.16c.29,0,.57.27,1.44.69l-6.48,5,.52,1c6.61,1.61,11.58-3.47,17.8-5.19l-8.21,12c5.08,1.2,9.11.85,12.79-.69,3.92-1.63,7.46-4.15,11.31-6a9.75,9.75,0,0,1,5.44-1.1A91.73,91.73,0,0,0,239,54.81a38.22,38.22,0,0,0,4-1.38c3.25-1.71,6.71-3.23,9.52-5.52s2.59-4.3-.93-5.92a77.12,77.12,0,0,0-11.19-3.79c-11.71-3.33-23.5-6.38-35.16-9.87-10.85-3.24-22-4.19-33.16-4.72s-22.13-1-33.2-1.36c-5-.18-8.55-3.15-12.28-5.81-2.59-1.85-5-3.92-7.63-5.73a24.4,24.4,0,0,0-5.2-2.8c-6.5-2.42-9-1-9.58,5.89-.4,4.36-1,8.53-4.23,11.81a5.21,5.21,0,0,1-2.67,1.58c-6.2.85-12.4,1.91-18.63,2.11-2.85.09-5.81-1.49-8.65-2.52-3.77-1.37-4-1.35-5.54,2.44a6.63,6.63,0,0,1-5.88,4.54c-3.49.35-7,1.29-10.43,1.35a13.55,13.55,0,0,1-6.69-1.74c-2.23-1.28-4-3.39-5.92-5.17-4.12-3.77-8.13-7.65-12.33-11.32q-8.06-7-16.37-13.76A38.14,38.14,0,0,0,1.31,0Z"/></g></g></svg>