<svg xmlns="http://www.w3.org/2000/svg" viewBox="0 0 11.45 11.45"><defs><style>.cls-1{fill:#fff;}</style></defs><title>icon__calendar--light</title><g id="Layer_2" data-name="Layer 2"><g id="Animal_Profle" data-name="Animal Profle"><path class="cls-1" d="M1.76,2.2V.44A.44.44,0,0,1,2.2,0a.44.44,0,0,1,.44.44V2.2a.43.43,0,0,1-.44.44.44.44,0,0,1-.44-.44Zm7.49.44a.44.44,0,0,0,.44-.44V.44a.44.44,0,0,0-.88,0V2.2a.44.44,0,0,0,.44.44ZM.88,10.48V4.4h9.69V6.17h.88V2.73a1,1,0,0,0-.95-1h-.37V2.2a.88.88,0,0,1-1.76,0V1.76H3.08V2.2a.88.88,0,0,1-1.76,0V1.76H1a1,1,0,0,0-.95,1v7.75a1,1,0,0,0,1,1H6.17v-.88H1a.08.08,0,0,1-.07-.09Zm9.69,0a.08.08,0,0,1-.07.09H5.29v.88H10.5a1,1,0,0,0,.95-1V2.73a1,1,0,0,0-.95-1h-.37V2.2a.88.88,0,0,1-1.76,0V1.76H3.08V2.2a.88.88,0,0,1-1.76,0V1.76H1a1,1,0,0,0-.95,1V6.17H.88V4.4h9.69v6.08Z"/></g></g></svg>