<svg id="Layer_1" data-name="Layer 1" xmlns="http://www.w3.org/2000/svg" viewBox="0 0 16.92 17.02"><defs><style>.cls-1{fill:#010101;}.cls-2{fill:#f7f8f8;}.cls-3{fill:#fff;}</style></defs><title>icon</title><path class="cls-1" d="M16.92,8.56A8.46,8.46,0,1,1,8.46.1a8.46,8.46,0,0,1,8.46,8.46"/><path class="cls-2" d="M10,12.37a3.85,3.85,0,0,1-3,0,2.51,2.51,0,0,1-.78.55,4.59,4.59,0,0,0,4.54,0,2.51,2.51,0,0,1-.78-.55"/><path class="cls-2" d="M6.11,5.89A2.49,2.49,0,0,1,5.84,5a4.66,4.66,0,0,0-2,3.14,2.4,2.4,0,0,1,.92-.27,3.8,3.8,0,0,1,1.32-2"/><path class="cls-2" d="M12.13,7.91a2.4,2.4,0,0,1,.92.27,4.66,4.66,0,0,0-2-3.14,3,3,0,0,1-.27.85,3.8,3.8,0,0,1,1.32,2"/><path class="cls-3" d="M5.06,12.34a1.81,1.81,0,1,0-1.8-1.81,1.81,1.81,0,0,0,1.8,1.81"/><path class="cls-3" d="M11.85,8.73a1.81,1.81,0,1,0,1.81,1.8,1.8,1.8,0,0,0-1.81-1.8"/><path class="cls-3" d="M8.46,6.49a1.81,1.81,0,1,0-1.81-1.8,1.8,1.8,0,0,0,1.81,1.8"/></svg>