<svg xmlns="http://www.w3.org/2000/svg" viewBox="0 0 232.3 76.84"><defs><style>.cls-1{fill:#eee;}</style></defs><title>Icon_Pilot.Whale</title><g id="Layer_2" data-name="Layer 2"><g id="Animal_Profle" data-name="Animal Profle"><path class="cls-1" d="M143.4,72a39,39,0,0,1,4.81-2.17c4.59-1.42,9.22-2.71,13.86-4a24.23,24.23,0,0,0,11.34-6.51c-9.32,3.11-18.94,2.16-28.5,2.26,4.26-2.33,9.45-1.77,13.61-4.63-1.84-.2-3.68-.42-5.52-.58-5.86-.52-11.71-1-17.57-1.54-4.62-.41-9.23-.85-13.85-1.29-6.16-.6-12.34-1.13-18.49-1.86a54,54,0,0,0-13.85.61c-3,.41-5.91.81-8.86,1.26-4.28.66-8.56,1.37-12.84,2-3.8.61-7.6,1.2-11.39,1.82s-7.76,1.34-11.65,2c-2.94.47-5.89.92-8.84,1.3s-5.94.63-8.9,1c-.36,0-.9.25-1,.53C23.67,67,19.56,69.6,15.11,71.51c-4.73,2-9.69,3.53-14.55,5.25a2.9,2.9,0,0,1-.56.08c5.1-4.7,7.91-10.93,11.48-16.62.72-1.15,1.36-2.12,2.91-2.09.87,0,1.16-.58.59-1.29a4.27,4.27,0,0,1-.67-3.78c.26-1.25.34-2.55.63-3.79.09-.38.6-.93,1-1a22,22,0,0,1,9.49,1,2.44,2.44,0,0,0,2.54-.53A108.25,108.25,0,0,1,50,35c6.08-2.9,12.12-5.89,18.36-8.4,6.91-2.78,14-5.22,21.07-7.5,5.75-1.85,11.59-3.44,17.48-4.78,5.44-1.24,11-2,16.5-3,1.4-.24,2.92-.1,4.21-.6a7.56,7.56,0,0,0,2.49-2.31c.13-.16-.22-1-.55-1.22A8,8,0,0,0,127.3,6c-1.08-.34-1-1-.76-1.81A5.08,5.08,0,0,1,130,.92c3.81-1.12,9.33-1.41,13.12.22,2.88,1.24,1.84.37,7.21,3.05,5.85,2.24,9,3.44,13,6.27a12.51,12.51,0,0,0,5.36,1.86c3.65.67,7.33,1.15,11,1.86s7.08,1.48,10.58,2.4c5,1.31,10,2.66,14.93,4.21,6.75,2.12,13.5,4.31,19.82,7.57s8.09,9.7,7.05,16c-.43,2.6-1.69,5-1.35,7.8a2.63,2.63,0,0,1-2.32,2.64,42.48,42.48,0,0,1-4.37.4c-8,.42-16,.82-24.08,1.25a17.33,17.33,0,0,0-2.86.43,1.48,1.48,0,0,0-.94.67c-1.84,3.87-5.19,6.13-8.78,8a53.84,53.84,0,0,1-16.63,5.47c-4.16.67-8.4.91-12.61,1.19s-8.36.38-12.54.52a13,13,0,0,1-2-.25Z"/></g></g></svg>