<svg id="Layer_1" data-name="Layer 1" xmlns="http://www.w3.org/2000/svg" viewBox="0 0 45.87 13.27"><defs><style>.cls-1{fill:#eba900;}</style></defs><title>icon</title><path class="cls-1" d="M4.77,0A1.4,1.4,0,0,1,6.16,1.39V11.75a1.41,1.41,0,0,1-1.39,1.39H0V0ZM3.89,2.25H2.25v8.62H3.89Z"/><path class="cls-1" d="M12.27,0a1.39,1.39,0,0,1,1.39,1.39V11.75a1.41,1.41,0,0,1-1.39,1.39H8.9a1.4,1.4,0,0,1-1.39-1.39V1.39A1.39,1.39,0,0,1,8.9,0Zm-.88,2.25H9.76v8.62h1.63Z"/><path class="cls-1" d="M20.4,10.87v2.27H15V0h2.26V10.87Z"/><path class="cls-1" d="M27.46,6.29a1.4,1.4,0,0,1-1.39,1.39H23.55v5.46H21.3V0h4.77a1.4,1.4,0,0,1,1.39,1.39Zm-2.27-4H23.55V5.42h1.64Z"/><path class="cls-1" d="M34.51,0V13.14H32.24V7.68H30.61v5.46H28.36V0h2.25V5.42h1.63V0Z"/><path class="cls-1" d="M36,0h2.25V13.14H36Z"/><path class="cls-1" d="M45.7,0V13.14H43.45L41.79,7.4v5.74H39.54V0h2.24l1.65,5.39V0Z"/></svg>