<svg xmlns="http://www.w3.org/2000/svg" viewBox="0 0 236.12 80.34"><defs><style>.cls-1{fill:#eee;}</style></defs><title>Icon_Silky.Shark</title><g id="Layer_2" data-name="Layer 2"><g id="Animal_Profle" data-name="Animal Profle"><path class="cls-1" d="M69.33,49.79,67.49,51.2c1.65,1.82,3.72,2.22,6.25,1.27a6.8,6.8,0,0,0,1.63-.78c2.23-1.63,4.75-1.39,7.23-1,4.48.62,8.94,1.37,13.49,1a5.65,5.65,0,0,1,3.92,1.2c2,1.48,4.65,2.29,4.94,5.35,1.39-.36,2.24-1.85,3.73-1,.09,0,.42-.2.55-.38a5.44,5.44,0,0,1,6.17-2.5c3.53.8,7,1.73,10.55,2.5,5.18,1.11,10.42.75,15.62.36,6.46-.49,12.88-1.33,19.32-2,.58-.06,1.18,0,2.06,0a10.6,10.6,0,0,1-.53,2.2c-2.44,5-5,9.88-7.37,14.88a68.05,68.05,0,0,0-2.52,6.83c-.11.3,0,.65.34,1.25a61.2,61.2,0,0,0,5.3-4.71c5.09-5.63,10.11-11.32,15-17.12,3.49-4.13,3.19-3.69,12.12-4.19,12.93-1,13.76-1.15,16.11-1.74a76.3,76.3,0,0,0,9.21-3.25c4.71-1.87,9.35-3.89,14-5.83,3.51-1.46,7.05-2.86,10.54-4.36a1.77,1.77,0,0,0,.94-1.33,1.94,1.94,0,0,0-1.07-1.39c-2-.62-4.08-1-6.09-1.58C219.33,32,209.75,29,200.09,26.27A225.81,225.81,0,0,0,166,19.41c-3.63-.44-7.27-.86-10.88-1.5a6.62,6.62,0,0,1-3-1.71c-4-3.75-7.89-7.71-12-11.34A50,50,0,0,0,133.28.44a3.67,3.67,0,0,0-1.45-.39c-2-.25-2.66.39-2.8,2.36-.18,2.7.86,5.11,1.7,7.58a32.11,32.11,0,0,1,1.5,5c.4,2.54-.79,4-3.31,4.49-.55.11-1.08.32-1.63.48l0,.42,5.79.5,0,.54-2.6.69c-6.29,1.7-12.58,3.42-18.89,5.08-2.56.67-5.17,1.17-7.74,1.79-1.16.28-2.28.72-3.43,1-1.81.48-3.63.87-5.44,1.33s-3.7,1.07-5.58,1.45-4.06.59-6.09.93c-.72.12-1.4.5-2.13.64a6.56,6.56,0,0,1-2.47.22c-2.73-.59-5.42-1.35-8.13-2a1.63,1.63,0,0,0-1.13,0c-1.14.75-2.2,1.6-3.43,2.53l4.7.77v.58a15.79,15.79,0,0,1-2.21.46q-6.39.49-12.77.87a2.65,2.65,0,0,1-1.66-.47A68,68,0,0,0,35.84,26.86c-8.36-3.28-16.69-6.62-25-9.89a19.72,19.72,0,0,0-9-1.17,2.38,2.38,0,0,0-1,.25,3.81,3.81,0,0,0-.76.79c.27.18.54.37.82.52,1.71.92,3.44,1.79,5.14,2.74a1.82,1.82,0,0,1,.88,1c.37,1.64,1.36,1.37,2.54,1a1.83,1.83,0,0,1,1.52.29,59,59,0,0,0,10,7.33A41.75,41.75,0,0,1,27.62,35c4.17,3.83,8.19,7.81,12.25,11.75,1.72,1.68,1.78,3.36.2,6.13-2.18,3.81-4.45,7.58-6.59,11.41a9.72,9.72,0,0,0-.61,2.47,9,9,0,0,0,2.36-.57c3.7-2.1,7.39-4.23,11-6.48A13.54,13.54,0,0,0,49.05,57c1.8-2.08,3.53-4.24,5.26-6.38a1.72,1.72,0,0,0,.45-.94c.06-2,1.3-2,2.78-1.85l11.75,1.51Z"/></g></g></svg>