<svg id="Layer_1" data-name="Layer 1" xmlns="http://www.w3.org/2000/svg" viewBox="0 0 48.78 13.27"><defs><style>.cls-1{fill:#bb6125;}</style></defs><title>icon</title><path class="cls-1" d="M4.77,5.49A1.4,1.4,0,0,1,6.16,6.88v4.93A1.41,1.41,0,0,1,4.77,13.2H1.39A1.4,1.4,0,0,1,0,11.81V9.11l2.25-.53v2.35H3.89V7.74H1.39A1.39,1.39,0,0,1,0,6.35V1.45A1.39,1.39,0,0,1,1.39.06H4.77A1.4,1.4,0,0,1,6.16,1.45V4.12l-2.27.52V2.31H2.25V5.49Z"/><path class="cls-1" d="M13.66,10.93V13.2H7.51V.06h6.15V2.31H9.76V5.49h3.12V7.74H9.76v3.19Z"/><path class="cls-1" d="M20.61,2V13.2H18.34V9.3H16.7v3.9H14.45V1.45A1.39,1.39,0,0,1,15.84.06h3.38a1.4,1.4,0,0,1,1.39,1.39Zm-2.27.35H16.7V7.05h1.64Z"/><path class="cls-1" d="M30.57,10.93V13.2H25.19V.06h2.25V10.93Z"/><path class="cls-1" d="M31.36.06h2.25V13.2H31.36Z"/><path class="cls-1" d="M39.69.06a1.4,1.4,0,0,1,1.39,1.39V11.81a1.41,1.41,0,0,1-1.39,1.39H36.31a1.4,1.4,0,0,1-1.39-1.39V1.45A1.39,1.39,0,0,1,36.31.06Zm-.88,2.25H37.18v8.62h1.63Z"/><path class="cls-1" d="M48.59.06V13.2H46.34L44.68,7.46V13.2H42.43V.06h2.24l1.65,5.39V.06Z"/></svg>