<svg id="Layer_1" data-name="Layer 1" xmlns="http://www.w3.org/2000/svg" viewBox="0 0 11.27 14.66"><defs><style>.cls-1{fill:#010101;}</style></defs><title>icon</title><path class="cls-1" d="M5.63,0A5.63,5.63,0,0,0,0,5.64c0,5.07,5.64,9,5.64,9s5.64-4.51,5.64-9A5.64,5.64,0,0,0,5.63,0m0,1.13a4.52,4.52,0,0,1,4.51,4.51c0,2-1.38,4.06-2.53,5.45a21.38,21.38,0,0,1-2,2.11C4.18,12,1.12,9.08,1.12,5.64A4.51,4.51,0,0,1,5.63,1.13"/><path class="cls-1" d="M5.63,7.33A1.69,1.69,0,1,1,7.32,5.64,1.69,1.69,0,0,1,5.63,7.33"/></svg>