<svg xmlns="http://www.w3.org/2000/svg" viewBox="0 0 219.38 61.89"><defs><style>.cls-1{fill:#eee;}</style></defs><title>icon__creature--aligator</title><g id="Layer_2" data-name="Layer 2"><g id="Mobile_Menu" data-name="Mobile Menu"><path class="cls-1" d="M162.47,35.13c.66,0,.65-1.41,2-2.17s5-1.52,8-2.61,3.8-3.25,6.09-3.9S192,23.83,198.43,21c6.94-3,19-8.15,18.68-10.1s-.22-1.3,1-1.63,2.61-3.58-1.08-5.1-3.8-1.41-5-.44-8,.54-12.27.65-4.56.33-7.17-.65S187.78-.48,185.39.06s-1.85.87-3.8,1-7.06-.11-7.06.87-2.93.65-3.81,1.63-1.41.1-2.49,1-2.39.11-3.37,1.41-2,.66-3,1.52-2.61.76-3.48,1.31-1.63.32-2.5,1-1.73.22-3,.44-.76-.33-4.56-1A174.16,174.16,0,0,0,114.35,5c-19-.55-26.5-.55-37.8,2.93s-15.2,4-19.44,4.67c-1.6.24-4.13.71-5.54.44-2.34-.43-2.91-1.4-4.13-.66-1.95,1.2-1.84.87-2.82-.11s-2,.87-3.26,1-1-1.09-2.93-1.09-1.74,1.42-3.15,1.74-5-1.52-6.41-.11a4,4,0,0,1-4.35,1.2c-1.19-.55-2.93-1.63-3.69-.11s-1.19,3-3.15,2.17-4.23-.65-4.23,1.08-.76,1.74-2.18,1.85-1,1.95-2.71,4-3.8,5.86-5.87,10.53S-5,41.65,10.73,51s42.69,12.6,54.2,10.1,11.52-5.21,9.34-4.56-2.28.87-3,0a2.78,2.78,0,0,0-3.48-.22c-1,.76-1.41-.43-2.93-1.19s-2.93,1.08-3.91.76.11-2.39-1.63-1.95-.43-1.09-2.6-.87-4.35.76-4-.33-1.42-1.63-2.5-1-.33-1.19-2.83-1.19-.54-1.63-2.82-1.85-2.17.76-3.69,0,1.19-2.6-2.39-2.6-4.24-.11-3.48-1-1.85-1.85-3.47-1.85-2.72-1.3-1.74-2-2.17-2.06-4.35-1.09-.43-1.95-1.73-3.58.21-1.08,2.27-1.19,17.28-1.09,22.49-1.09,22.92-.54,29.55-.54,4.88,1.74,11.51,1.3,8-2.71,7.38-1S93.93,39.69,102,39.8s11-1,15.53-.65,9.13,2.93,11.63,3.47,1.3-.65-.11-1.19,2.17.54-.87-1.41-5.21-2.5-5.65-2.94,4.13-.54,9.12-.76,11.41-.84,14.12-.75c6.85.21-1.52,2,6.74,4.12s11.73,4.67,13,5.54,1.74,4.56,2.39,3.8-.22-2.83,1.2-1.63,4.45,4.78,4.88,4.13.11-2.07.22-2.5,1.74,1.3,3.26,1.19,1.52-.32,0-1.95c-1.2-1.28,3.69.22.11-1.63s-4.78-2.28-6.19-3.8-1.09-1.84-4.46-4.13-6.4-3.47-4.45-3.58Z"/></g></g></svg>