<svg xmlns="http://www.w3.org/2000/svg" viewBox="0 0 233.11 89.32"><defs><style>.cls-1{fill:#eee;}</style></defs><title>icon__creature--whale</title><g id="Layer_2" data-name="Layer 2"><g id="Mobile_Menu" data-name="Mobile Menu"><path class="cls-1" d="M141,21.46c-3.86.2-20.82,2.49-36.62-2.8S70.71,9.57,63.35,8c-3.91-.84-9.77-3-15.06-3.32-4.67-.31-9.06,1.21-8.91,0,.31-2.5,4.21-5-2.8-4.68-2.65.14,2,.67-4.52,4.12,0,0-2.88,1.34-2.81,2.42s-.54,1.36-2.79,1.52c0,0-15.3,3.71-21.49,3.38s-5.64.59-3.46,2.38,11.77,5.53,27,1.4c7-1.9-2.58-1.77,32.83,25.41,6.23,4.79,12,10.85,20.37,15.76,16.77,9.79,35.75,17.35,43.72,13.6,1.41-.67.25-1-2.29,2.94s-1.21,1.17-3.51,4.67c-4.55,7-4.78,7.08-7,8.19s-3.09,3.5,1.17,3.5c7,0,16.36-4.67,22.2-15.19,2.4-4.32,4-4.68,6.33-5s3.63-.6,5-.76,1.05,5.94-5.08,12.39,2,4,3.93,1.89c0,0,8.82-6.44,10.17-14.85A17.31,17.31,0,0,0,168.88,66c6.8-3.68,23.9-15.49,36.75-20.56S235.1,28.9,232.92,20.29c-1-3.76-2.43-3.41-2.43-3.41s1.77-2.07-2.22-3.1-3.06-3-9-2.29-25.22,3-30.07,3.26-6.64-2.07-12.27.12-7.39,1.56-11.62,2.74A154.81,154.81,0,0,1,141,21.46Z"/></g></g></svg>