<svg xmlns="http://www.w3.org/2000/svg" viewBox="0 0 100 91.09"><defs><style>.cls-1{fill:#fff;}</style></defs><title>icon__palm-tree</title><g id="Layer_2" data-name="Layer 2"><g id="Layer_1-2" data-name="Layer 1"><path class="cls-1" d="M19.92,69.88H0V72.1H20.44C20.24,71.33,20.07,70.59,19.92,69.88Z"/><path class="cls-1" d="M24.39,69.88c.14.79.29,1.53.44,2.22H100V69.88Z"/><path class="cls-1" d="M23.77,62.79h-.6a48.13,48.13,0,0,1,.5-11.91c-.1-.1-.67,0-.67,0A42.12,42.12,0,0,1,25,40h-.54s1.14-7.91,4.95-14c1-2.4-2.61-2.6-2.61-2.6s-4.4,10.21-5.61,16.52c.1.2-.5-.1-.5-.1a49.21,49.21,0,0,0-1.2,11.11c.1.11-.6-.19-.6-.19a92.06,92.06,0,0,0,.5,12c.2.1-.53.1-.53.1a51.34,51.34,0,0,0,1.08,7.09h4.48A35.82,35.82,0,0,1,23.77,62.79Z"/><path class="cls-1" d="M24.43,86.23c-.06.1,5.95,0,5.95,0s-.37-.68-.91-1.84H23.52A16.62,16.62,0,0,0,24.43,86.23Z"/><path class="cls-1" d="M24.83,72.1c-.15-.69-.3-1.43-.44-2.22H19.92c.15.71.32,1.45.52,2.22Z"/><path class="cls-1" d="M21.12,76.58a53.42,53.42,0,0,0,2.4,7.81h5.95a52.59,52.59,0,0,1-2.91-7.81Z"/><path class="cls-1" d="M21.57,75.91c.1.1-.6,0-.6,0s.05.25.15.67h5.44c-.06-.22-.13-.44-.19-.67.1.1-.6,0-.6,0s-.46-1.57-.95-3.81H20.44C20.75,73.31,21.12,74.59,21.57,75.91Z"/><path class="cls-1" d="M28.66,24.74a23.2,23.2,0,0,1,.72,8.61,3.18,3.18,0,0,0,2.6-1.9c.1.2,2.41,7.22-2.4,13.07.2-.05,14.32-7.46,6.21-21.58-.1-.1,3.9.7,4.8,6.2.11,0,1.11-.19,1.91-1.9,0,.2,5.31,3.61.7,14.22,0,.21,7.41-3.7,4.61-17a12.26,12.26,0,0,1,3.5,5.91c.1.1,2-14.62-17.23-14.73-.2.41,6-4,15.73,1.41,0-.1-3.33-7-9.78-7,.06-.1,1.87-3.2,7.27-.9-.1-.1-5.2-6.21-14,1.7C33.38,10.92,33-.3,24.43,0a6.42,6.42,0,0,1,4.95,5.6c-.1-.2-4-4.2-12.22-1.8,0-.1,9.81,2.2,12.72,10.12,0-.1-11.52-12.92-23.24-1.81a28.41,28.41,0,0,1,7.11-1.7c0-.1-10.31,5.91-8.91,15.62-.1,0,3.71-10.11,10.52-9.71a8.4,8.4,0,0,0-.2,2.8c.2.2,3.1-3.3,8.31-1.3,0,.2-14.22,2.81-10.62,19.43.1.1.8-8,7.21-10.72a5.11,5.11,0,0,0,.4,3.21c.1,0,3.11-3.61,6.51-5.51a15.3,15.3,0,0,1,1.69.5"/><rect class="cls-1" y="84.39" width="100" height="6.7"/></g></g></svg>