<svg id="Layer_1" data-name="Layer 1" xmlns="http://www.w3.org/2000/svg" viewBox="0 0 36.17 13.27"><defs><style>.cls-1{fill:#00a1e1;}</style></defs><title>icon</title><path class="cls-1" d="M4.77,5.49A1.4,1.4,0,0,1,6.16,6.88v4.93A1.41,1.41,0,0,1,4.77,13.2H1.39A1.4,1.4,0,0,1,0,11.81V9.11l2.25-.53v2.35H3.89V7.74H1.39A1.39,1.39,0,0,1,0,6.35V1.45A1.39,1.39,0,0,1,1.39.06H4.77A1.4,1.4,0,0,1,6.16,1.45V4.12l-2.27.52V2.31H2.25V5.49Z"/><path class="cls-1" d="M13.66.06V13.2H11.39V7.74H9.76V13.2H7.51V.06H9.76V5.49h1.63V.06Z"/><path class="cls-1" d="M21.17,2V13.2H18.9V9.3H17.27v3.9H15V1.45A1.39,1.39,0,0,1,16.4.06h3.38a1.4,1.4,0,0,1,1.39,1.39Zm-2.27.35H17.27V7.05H18.9Z"/><path class="cls-1" d="M26.56,13.2l-.92-5.46h-.87V13.2H22.52V.06h4.77a1.38,1.38,0,0,1,1.37,1.39V6.37a1.36,1.36,0,0,1-.79,1.24l.94,5.59ZM26.41,2.31H24.77V5.49h1.64Z"/><path class="cls-1" d="M34.06,6.61l2.11,6.59H33.89v-.07L32.19,7.74H32V13.2H29.73V.06H32V5.49h.17L33.88.06h2.29Z"/></svg>