<svg id="Layer_1" data-name="Layer 1" xmlns="http://www.w3.org/2000/svg" viewBox="0 0 152.24 23.74"><defs><style>.cls-1{fill:#011e41;}</style></defs><title>icon</title><path class="cls-1" d="M50,16.23a1,1,0,0,1-.93,1H43a1,1,0,0,1-.93-1V10.55a1,1,0,0,1,.93-1h6.07a1,1,0,0,1,.93,1ZM49.52,5.8h-7A4.74,4.74,0,0,0,38,10.68V16.1A4.73,4.73,0,0,0,42.57,21h7a4.73,4.73,0,0,0,4.57-4.87V10.68A4.74,4.74,0,0,0,49.52,5.8"/><path class="cls-1" d="M65.38,17.21H60.23a1,1,0,0,1-.95-1V10.57a1,1,0,0,1,.95-1h5.15c4.27,0,4.87-3.2,4.87-3.76H59.76a4.74,4.74,0,0,0-4.57,4.88v5.41A4.74,4.74,0,0,0,59.76,21s8.45,0,10.49,0c0-.56-.6-3.76-4.87-3.76"/><path class="cls-1" d="M125.72,9.56h5.14c4.28,0,4.88-3.2,4.88-3.76H125.25a4.74,4.74,0,0,0-4.57,4.88v5.41A4.74,4.74,0,0,0,125.25,21s8.44,0,10.49,0c0-.56-.6-3.76-4.88-3.76h-5.14a1,1,0,0,1-1-1V10.57a1,1,0,0,1,1-1"/><path class="cls-1" d="M115,5.8h-6.58a4.74,4.74,0,0,0-4.57,4.88V21c.27,0,4.08-.85,4.08-4.52v-5.9a1,1,0,0,1,.93-1h5.69a1,1,0,0,1,.93,1V12h-1.77c-4.28,0-5.08,3.2-5.08,3.76h3.74l1.69,2.81c1.48,3.32,5.26,2.34,5.51,2.22-.22-.49-1.81-3.07-2.84-5.39a4.9,4.9,0,0,0,2.84-4.51v-.17A4.74,4.74,0,0,0,115,5.8"/><path class="cls-1" d="M142.58,12h-1.66V10.33c0-3.68-3.81-4.53-4.08-4.53V21c.27,0,4.08-.85,4.08-4.52v-.74h6.54c0-.55-.6-3.75-4.88-3.75"/><path class="cls-1" d="M152.24,5.8c-.27,0-4.08.85-4.08,4.53v6.12c0,3.67,3.81,4.52,4.08,4.52V5.8"/><path class="cls-1" d="M98.18,5.8H91.6A4.74,4.74,0,0,0,87,10.68S87,20,87,21c.26,0,4.07-.85,4.07-4.52v-.72H98c0-.56-.6-3.77-4.87-3.77h-2V10.55a1,1,0,0,1,.94-1h5.69a1,1,0,0,1,.93,1v5.9c0,3.67,3.81,4.52,4.08,4.52,0-1,0-10.29,0-10.29A4.74,4.74,0,0,0,98.18,5.8"/><path class="cls-1" d="M81.36,5.8H74.78a4.74,4.74,0,0,0-4.57,4.88V16.1A4.73,4.73,0,0,0,74.78,21s9.82,0,11.15,0c0-.56-.6-3.75-4.86-3.75H75.22a1,1,0,0,1-.93-1V10.55a1,1,0,0,1,.93-1h5.7a1,1,0,0,1,.93,1V12h-2C75.59,12,75,15.17,75,15.73h6.36a4.74,4.74,0,0,0,4.57-4.88v-.17A4.74,4.74,0,0,0,81.36,5.8"/><path class="cls-1" d="M4.3,10c6.22,0,6.51-3.91,6.51-4.45,5,0,8,3.39,15,4.45A25.24,25.24,0,0,0,5.5.41,16.59,16.59,0,0,1,4.3,10"/><path class="cls-1" d="M0,19.17c1.61,1,6.65,4.16,16.43,4.16,6.55,0,12.39-3.15,13.4-4.16-8.32.43-10-1.52-13.28-1.52s-4.43,2-16.55,1.52"/><path class="cls-1" d="M13,8.81c-1.32,3.28-4.63,4.29-10,4.29-.66,1.14-1.32,2.26-2,3.17,10.84.26,11.52-2,14.48-2,3.86,0,5.7,2.52,14.11,2-.36-.78-1.28-2.48-1.69-3.16C20.31,12.93,16,8.81,13,8.81"/></svg>