<svg xmlns="http://www.w3.org/2000/svg" viewBox="0 0 16.43 9"><defs><style>.cls-1{fill:#fff;}</style></defs><title>icon__dolphin</title><g id="Layer_2" data-name="Layer 2"><g id="Map_Tracker_Nav" data-name="Map &amp; Tracker Nav"><path class="cls-1" d="M1.78,6.2a.38.38,0,1,1,.37-.38.37.37,0,0,1-.37.38m12.72.2A11.56,11.56,0,0,0,9.27,2c-.46-.17-1.2-.35-.38-1.74,0,0-1.6-1-2.5,1.16C5.54,1.47-1.24,3.44.64,6.91c0,0-1,.78-.5,1.19s.94-.82,3-1.56a2.42,2.42,0,0,0,3.32.65,1.3,1.3,0,0,1-.77-.42,1.9,1.9,0,0,1-.4-1.36l.15,0,.15,0h0a2.56,2.56,0,0,0,0,.42,31.56,31.56,0,0,1,4.44-.33,6.23,6.23,0,0,1,3.74,1.39A1.44,1.44,0,0,0,14,9a2.16,2.16,0,0,1,2.46-1.77C16,6.48,14.92,6.09,14.5,6.4"/></g></g></svg>