<svg id="Layer_1" data-name="Layer 1" xmlns="http://www.w3.org/2000/svg" viewBox="0 0 15.55 16.33"><defs><style>.cls-1{fill:#051c3c;}</style></defs><title>icon</title><path class="cls-1" d="M7.76,2.65a.87.87,0,0,1-.85-.88A.86.86,0,0,1,7.76.9h0a.86.86,0,0,1,.85.87.87.87,0,0,1-.85.88h0m0,.89A1.75,1.75,0,0,0,9.52,1.77,1.75,1.75,0,0,0,7.79,0h0A1.75,1.75,0,0,0,6,1.77,1.75,1.75,0,0,0,7.76,3.54h0"/><path class="cls-1" d="M10.37,9.71h2.08c-.62,1.07-2,2.51-2.66,2.51s-.55-6.1-.55-6.1h.5c1.53,0,2.11-.85,2.11-1.65,0-.26,0-.93,0-.93H3.71s0,.67,0,.93c0,.8.59,1.65,2.12,1.65h.5s.06,6.1-.56,6.1-2-1.44-2.66-2.51H5.17L0,5V6.91c0,6.57,7.76,9.44,7.76,9.44h0s7.76-2.87,7.76-9.44V5Z"/></svg>