<svg xmlns="http://www.w3.org/2000/svg" viewBox="0 0 16.92 16.56"><defs><style>.cls-1{fill:#fff;}</style></defs><title>icon__heart--line</title><g id="Layer_2" data-name="Layer 2"><g id="Tracker_Button" data-name="Tracker Button"><path class="cls-1" d="M8.19,14.92C3,11.31.76,5.47,1.55,2.85c.19-.65.64-1.5,2.34-1.46A4.26,4.26,0,0,1,7.25,3.61l.46.9,1.47,0,.51-.87a4.23,4.23,0,0,1,3.47-2.05c1.7,0,2.11.91,2.27,1.57.65,2.65-1.86,8.38-7.24,11.72m5-14.68A5.68,5.68,0,0,0,8.49,3,5.68,5.68,0,0,0,3.93,0C-3-.17-.22,11.34,8.14,16.56c8.62-4.79,12-16.15,5-16.32"/></g></g></svg>