<svg xmlns="http://www.w3.org/2000/svg" viewBox="0 0 165.31 89.72"><defs><style>.cls-1{fill:#eee;}</style></defs><title>icon__creature--turtle</title><g id="Layer_2" data-name="Layer 2"><g id="Mobile_Menu" data-name="Mobile Menu"><path class="cls-1" d="M163.78,26.67a15.17,15.17,0,0,1-2.63-3.35c-1-1.41-3.52-2.58-4.33-3s-2.42-.93-3.07-1.22a20.11,20.11,0,0,0-3.15-.54,9.82,9.82,0,0,1-2.55-.76,8.69,8.69,0,0,0-2-.72,10.06,10.06,0,0,1-1.24-.24c-1-.41-4,.52-4.51.36a12.21,12.21,0,0,0-2.68.13,11.42,11.42,0,0,0-2.84-.4c-.29.21-1.66-.28-1.91-.33s-.83-.65-1.24-.72a7.8,7.8,0,0,0-1.37,0l-1.08-1,0-.08c-.59-1-1.27-3-2.68-3.28l-.24-.44a35.44,35.44,0,0,0-3.53-3c-2.18-1.63-5.84-3.51-6.73-3L115.55,5s.22-.38-5.27-2A67.17,67.17,0,0,0,90.91.29l-.14.28h-.21S90.7.22,88.8.15,79.87-.4,73.66.88s-7.17,1.17-7.78,1.75l-.28.11a2.49,2.49,0,0,0-1.73-.12c-1.23.22-11.68,2.78-15,3.84s-5.7,1.76-6.41,2.71l-.36.11s-.21-.3-2,.13-8.41,3.47-11.44,4.66A56.87,56.87,0,0,0,21.11,18a2.33,2.33,0,0,0-.67,1l-.24.13-.05-.22c-2.8,1.4-7.74,3.29-9,4S11,24.24,11,24.24s-2.09,1.7-1,2.23c.28.14.82.34,1.46.57-1.45.81-3,2.06-2.69,2.38s1.54.27,2,.22a7.78,7.78,0,0,0,1.62-.24c.33-.16,1-.17,1.08-.29s1.12.45,1.54.48c.2,0,.59.1,1,.18a3.37,3.37,0,0,0,1.76,2.56,14.39,14.39,0,0,0,1.62.9,7.62,7.62,0,0,1-2.14,1.15c-.86.24-2.75-.17-3.94.48a32.34,32.34,0,0,1-4.7,1.75c-1.36.46-3.79,3.16-5.19,3.81S.64,41.91.67,42.69,3,44.59,4.4,44.62a6.59,6.59,0,0,0-.65,3.05l-.81,3.2s-.7,1.11-.54,1.7a4.37,4.37,0,0,1-.23,2c-.16.41-.5,1.2-.61,1.57S1,57.71.84,58.11.56,59.52.56,59.52A4.58,4.58,0,0,0,0,61.22c-.07.89.27,1.16.27,1.16a.78.78,0,0,0,.6.75,18,18,0,0,0,4.36.78,10.08,10.08,0,0,0,5.41-1.37c1.12-.84,2.75-2.31,3.42-2.79s1.19-.66,1.71-1A14.4,14.4,0,0,0,18,56.83a10.26,10.26,0,0,0,1.27-2.18s.17.29.64-.49.63-.7,1-1.06.35-.58.35-.58l.42-.18s.24.08.71-.44a7.65,7.65,0,0,1,2-1.32,5,5,0,0,0,1.24-.94,2.32,2.32,0,0,0,.67-.18,9.3,9.3,0,0,0,1.35-.88c.4-.32,4.18-4.34,4.73-5,.55.36,1.31.83,2.23,1.31,2,1,11.53,4.54,15.11,5.16s13.67,2.52,17,2.58,11.63.46,14.56.36,11.09-.83,12.33-1a31.44,31.44,0,0,1,5.75-1.16,35,35,0,0,0,7.19-1.5c.53-.16,4.39-.61,5-.64s4.64-.46,4.64-.46l2.82-.48a16,16,0,0,0,2.74-.55,29.94,29.94,0,0,1,3.49-.38,10.13,10.13,0,0,0,1.26-.34,4.48,4.48,0,0,1,1.41.31l.19-.23a.41.41,0,0,1,0,.63c-1,1,0,4,0,4s7,12,5,17-8,16-7,18c2.23,4.48,9,5,16,0s7-18,7-25-4-15-10-18C137,42.07,135.08,41,133.47,40l.06-.08a2.21,2.21,0,0,0-.72-.33,37.1,37.1,0,0,1-4.36-3.16c-.22-.75-.51-1.88-.33-2.1a.73.73,0,0,0,0-.12c.53-.09,1.12-.19,1.34-.2.42,0,1.24-.3,1.64-.14s2.75,0,3.17,0a4,4,0,0,0,1.11-.07l.49.17c.48.17,1.33-.28,1.8,0s5.88,1.61,5.88,1.61l1.51.32a19.47,19.47,0,0,0,2.76.33c.52-.06,4.13.41,4.71.36s1.62.33,2.2.22a12.23,12.23,0,0,1,1.49,0c.63-.05,1.13.16,1.31,0,.82.43,4.35-.14,5.24-1.08a13.7,13.7,0,0,0,2.34-5.19C165.57,28.78,165.15,27.88,163.78,26.67Z"/></g></g></svg>