<?xml version="1.0" encoding="utf-8"?>
<!-- Generator: Adobe Illustrator 22.1.0, SVG Export Plug-In . SVG Version: 6.00 Build 0)  -->
<svg version="1.1" id="Layer_1" xmlns="http://www.w3.org/2000/svg" xmlns:xlink="http://www.w3.org/1999/xlink" x="0px" y="0px"
	 width="20px" height="20px" viewBox="0 0 20 20" style="enable-background:new 0 0 20 20;" xml:space="preserve">
<style type="text/css">
	.st0{fill:#EBA900;}
	.st1{fill:#FFFFFF;}
</style>
<g>
	<title>updatedOCEARCHicons</title>
	<g>
		<path class="st0" d="M20,10c0,5.5-4.5,10-10,10S0,15.5,0,10S4.5,0,10,0l0,0C15.5,0,20,4.5,20,10"/>
		<path class="st1" d="M14.4,6.3c0.1-0.1,0.3-0.3,0.5-0.4c0.3-0.1,0.5-0.2,0.8-0.2c0.3,0,0.7,0,1,0.1c0.3,0.1,0.7,0.1,1.1,0.1
			c0.1,0,0.1,0,0.1,0.1c-0.2,0.4-0.4,0.8-0.8,1.1c-0.3,0.3-0.8,0.5-1.3,0.5c-0.1,0-0.3,0-0.4,0c-0.4,0.1-0.6,0.2-0.6,0.6
			c-0.1,0.5-0.2,1-0.3,1.4c-0.1,0.6-0.4,1.2-0.7,1.7c-0.3,0.5-0.6,0.9-1,1.2c-0.1,0.1-0.2,0.1-0.3,0.2c-0.1,0.1-0.3,0.1-0.5,0
			c-0.2-0.1-0.4-0.3-0.6-0.3c-0.3-0.1-0.5-0.3-0.8-0.4c0,0-0.1,0-0.1,0c0,0-0.1,0-0.1,0.1c0,0,0,0.1,0,0.1c0,0,0,0,0,0
			c0.1,0.1,0.3,0.1,0.4,0.2c0.3,0.2,0.6,0.4,0.8,0.6c0.3,0.2,0.7,0.4,1,0.5c0,0,0.1,0,0.1,0.1c0,0,0,0.1,0,0.1
			c-0.4,0.4-0.9,0.7-1.5,0.8c-0.3,0-0.6,0-0.9,0c-0.6-0.1-1.1-0.3-1.5-0.6c-0.2-0.1-0.4-0.3-0.6-0.4c0,0-0.1,0-0.2,0
			c0,0,0,0.1,0,0.2c0.2,0.2,0.4,0.4,0.7,0.6c0,0,0,0,0.1,0.1l-0.3,0c-0.6,0-1.1,0-1.7,0c-0.5-0.1-1.1-0.2-1.6-0.4
			c-0.5-0.2-1-0.4-1.5-0.8c-0.3-0.2-0.7-0.5-1-0.8c-0.3-0.3-0.6-0.5-0.8-0.9c-0.1-0.2-0.2-0.3-0.2-0.5c-0.1-0.3,0-0.5,0.1-0.8
			c0.2-0.4,0.6-0.7,1-0.9c0.5-0.3,1.1-0.4,1.7-0.4c0.4,0,0.8,0,1.2,0c0.5,0,0.9,0.1,1.4,0.2C7.7,8.9,8.2,9,8.6,9.1
			C9.1,9.2,9.5,9.3,10,9.4c0.5,0.1,1.1,0.1,1.6,0.1c0.7,0,1.4-0.5,1.7-1.2c0.1-0.1,0.1-0.3,0.1-0.4c0.1-0.3-0.1-0.6-0.4-0.7
			C13,7,12.8,7,12.6,6.9c-0.5-0.2-0.9-0.6-1.1-1c-0.1-0.3-0.2-0.7-0.2-1.1c0-0.1,0-0.1,0.1-0.1c0.1,0,0.2,0.1,0.3,0.1
			c0.3,0.1,0.7,0.2,1,0.2c0.5,0.1,1,0.3,1.4,0.7C14.2,5.9,14.3,6.1,14.4,6.3z M4.1,10.2c0,0.2,0.1,0.3,0.3,0.3
			c0.2,0,0.3-0.1,0.3-0.3c0-0.1-0.1-0.3-0.3-0.3C4.3,9.9,4.1,10,4.1,10.2C4.1,10.2,4.1,10.2,4.1,10.2z"/>
		<path class="st1" d="M9.1,15.6c-0.4,0-0.8-0.1-1.1-0.2c-0.5-0.2-0.9-0.4-1.3-0.8c-0.1-0.1-0.2-0.2-0.3-0.3c0,0,0-0.1,0-0.1
			c0,0,0.1,0,0.1,0c0.3,0,0.6,0.1,0.8,0.1c0.4,0,0.7,0,1.1,0c0.1,0,0.2,0,0.3,0c0.2,0,0.4,0.1,0.5,0.3c0.2,0.3,0.4,0.5,0.7,0.7
			c0,0,0,0,0.1,0.1c0,0,0,0.1-0.1,0.1C9.7,15.6,9.4,15.6,9.1,15.6z"/>
		<circle class="st0" cx="4.5" cy="10.2" r="0.4"/>
	</g>
</g>
</svg>
