<svg id="Layer_1" data-name="Layer 1" xmlns="http://www.w3.org/2000/svg" viewBox="0 0 13.6 13.38"><defs><style>.cls-1{fill:#051c3c;}</style></defs><title>icon</title><rect class="cls-1" x="0.97" y="6.4" width="4.93" height="6.97"/><rect class="cls-1" x="7.71" y="6.4" width="4.93" height="6.97"/><path class="cls-1" d="M10.88,2.19A2.12,2.12,0,0,0,8.87,0,2.77,2.77,0,0,0,6.8,1.2,2.77,2.77,0,0,0,4.73,0a2.12,2.12,0,0,0-2,2.19H0V5.54H5.89V2.19H4c0-.53.34-1,.77-1a1.26,1.26,0,0,1,1.16,1H7.71a1.26,1.26,0,0,1,1.16-1c.49,0,.77.53.77,1H7.71V5.54H13.6V2.19Z"/></svg>