<svg xmlns="http://www.w3.org/2000/svg" viewBox="0 0 19.27 19.71"><defs><style>.cls-1{fill:#f7f7f7;}.cls-2{fill:#fff;}</style></defs><title>icon__track--light</title><g id="Layer_2" data-name="Layer 2"><g id="Tracker_Button" data-name="Tracker Button"><path class="cls-1" d="M12.4,17.58a7.11,7.11,0,0,1-5.53,0,4.92,4.92,0,0,1-1.44,1,8.59,8.59,0,0,0,8.41,0,4.92,4.92,0,0,1-1.44-1"/><path class="cls-1" d="M5.28,5.58A4.75,4.75,0,0,1,4.79,4,8.64,8.64,0,0,0,1.13,9.81a5.15,5.15,0,0,1,1.7-.5A7.06,7.06,0,0,1,5.28,5.58"/><path class="cls-1" d="M16.44,9.31a5.08,5.08,0,0,1,1.7.5A8.64,8.64,0,0,0,14.48,4,4.75,4.75,0,0,1,14,5.58a7.06,7.06,0,0,1,2.45,3.73"/><path class="cls-2" d="M3.35,17.52A3.35,3.35,0,1,0,0,14.17a3.35,3.35,0,0,0,3.35,3.35"/><path class="cls-2" d="M15.93,10.83a3.35,3.35,0,1,0,3.34,3.34,3.35,3.35,0,0,0-3.34-3.34"/><path class="cls-2" d="M9.64,6.69A3.35,3.35,0,1,0,6.29,3.35,3.35,3.35,0,0,0,9.64,6.69"/></g></g></svg>