<svg xmlns="http://www.w3.org/2000/svg" viewBox="0 0 12.76 10.9"><defs><style>.cls-1{fill:#fff;}</style></defs><title>icon__seal</title><g id="Layer_2" data-name="Layer 2"><g id="Map_Tracker_Nav" data-name="Map &amp; Tracker Nav"><path class="cls-1" d="M2.37,1.19a.37.37,0,0,1,0-.74.36.36,0,0,1,.37.37.36.36,0,0,1-.37.37m4,3.33C4.56,4.3,4.53,0,2.53,0H.06S-.33,1.45.92,1.84c.62.19.83.1,1,.94.3,1.78.68,3.43.74,4.09S.84,8.47.84,9.1,3.09,9,3.7,8.64c1.19,1.93,3.55,2.21,3.55,1.67,0-.38-.43-.57-.58-1.11A1.83,1.83,0,0,1,6.57,8l.28.1a1.57,1.57,0,0,0,.08.92,4.3,4.3,0,0,0,3,.2c1.23-.17.37,3,2.12.94.77-.91,2.45-4.69-5.75-5.68"/></g></g></svg>