<svg id="Layer_1" data-name="Layer 1" xmlns="http://www.w3.org/2000/svg" viewBox="0 0 14.59 14.59"><defs><style>.cls-1{fill:#fff;}</style></defs><title>icon</title><path class="cls-1" d="M11.13,13.53H3.46L1.23,8.77,6.18,6.52l1-.46h.19l1,.46,4.95,2.25ZM2.74,4.26H4.08V2.1h6.39V4.26h1.34V6.9l-3-1.35-1-.46a1.24,1.24,0,0,0-.5-.1H7.27a1.16,1.16,0,0,0-.49.1l-1,.46-3,1.37ZM14.3,8l-1.45-.66V3.2H11.51V1H8.37V0H6.18V1H3V3.2H1.7V7.4L.29,8a.49.49,0,0,0-.24.66l2.76,5.89h9L14.54,8.7A.49.49,0,0,0,14.3,8"/><rect class="cls-1" x="5.71" y="3.19" width="3.12" height="0.93"/></svg>