<svg id="Layer_1" data-name="Layer 1" xmlns="http://www.w3.org/2000/svg" viewBox="0 0 157 39"><defs><style>.cls-1{fill:#011e41;}.cls-2{fill:#656e88;}</style></defs><title>icon</title><path class="cls-1" d="M51,16.58a1,1,0,0,1-.93,1H44a1,1,0,0,1-.93-1V10.9a1,1,0,0,1,.93-1h6.07a1,1,0,0,1,.93,1ZM50.52,6.15h-7A4.74,4.74,0,0,0,39,11v5.42a4.73,4.73,0,0,0,4.57,4.87h7a4.73,4.73,0,0,0,4.57-4.87V11a4.74,4.74,0,0,0-4.57-4.88"/><path class="cls-1" d="M66.38,17.57H61.23a1,1,0,0,1-.95-1V10.92a1,1,0,0,1,.95-1h5.15c4.27,0,4.87-3.2,4.87-3.75-2,0-10.49,0-10.49,0A4.73,4.73,0,0,0,56.19,11v5.41a4.74,4.74,0,0,0,4.57,4.88H71.25c0-.56-.6-3.75-4.87-3.75"/><path class="cls-1" d="M126.72,9.91h5.14c4.28,0,4.88-3.2,4.88-3.75-2.05,0-10.49,0-10.49,0A4.73,4.73,0,0,0,121.68,11v5.41a4.74,4.74,0,0,0,4.57,4.88h10.49c0-.56-.6-3.75-4.88-3.75h-5.14a1,1,0,0,1-1-1V10.92a1,1,0,0,1,1-1"/><path class="cls-1" d="M116,6.15h-6.58A4.74,4.74,0,0,0,104.86,11V21.32c.27,0,4.08-.85,4.08-4.52V10.9a1,1,0,0,1,.93-1h5.69a1,1,0,0,1,.93,1v1.41h-1.77c-4.28,0-5.08,3.2-5.08,3.76h3.74l1.69,2.81c1.48,3.32,5.26,2.34,5.51,2.22-.22-.49-1.81-3.07-2.84-5.39a4.9,4.9,0,0,0,2.84-4.51V11A4.74,4.74,0,0,0,116,6.15"/><path class="cls-1" d="M143.58,12.31h-1.66V10.68c0-3.68-3.81-4.53-4.08-4.53V21.32c.27,0,4.08-.85,4.08-4.52v-.74c2,0,5.89,0,6.54,0,0-.55-.6-3.75-4.88-3.75"/><path class="cls-1" d="M153.24,6.15c-.27,0-4.08.85-4.08,4.53V16.8c0,3.67,3.81,4.52,4.08,4.52V6.15"/><path class="cls-1" d="M99.18,6.15H92.6A4.74,4.74,0,0,0,88,11s0,9.28,0,10.29c.26,0,4.07-.85,4.07-4.52v-.72H99c0-.56-.6-3.76-4.87-3.76h-2V10.9a1,1,0,0,1,.94-1h5.69a1,1,0,0,1,.93,1v5.9c0,3.67,3.81,4.52,4.08,4.52,0-1,0-10.29,0-10.29a4.74,4.74,0,0,0-4.57-4.88"/><path class="cls-1" d="M82.36,6.15H75.78A4.74,4.74,0,0,0,71.21,11v5.42a4.73,4.73,0,0,0,4.57,4.87H86.93c0-.55-.6-3.75-4.86-3.75H76.22a1,1,0,0,1-.93-1V10.9a1,1,0,0,1,.93-1h5.7a1,1,0,0,1,.93,1v1.41h-2c-4.28,0-4.87,3.21-4.87,3.77h6.36a4.74,4.74,0,0,0,4.57-4.88V11a4.74,4.74,0,0,0-4.57-4.88"/><path class="cls-1" d="M5.3,10.38c6.22,0,6.51-3.91,6.51-4.45,5,0,8,3.39,15,4.45A25.24,25.24,0,0,0,6.5.76a16.59,16.59,0,0,1-1.2,9.62"/><path class="cls-1" d="M1,19.53c1.61,1,6.65,4.15,16.43,4.15,6.55,0,12.39-3.15,13.4-4.16C22.51,20,20.85,18,17.55,18S13.12,20,1,19.53"/><path class="cls-1" d="M14,9.16c-1.32,3.28-4.63,4.29-10,4.29-.66,1.14-1.32,2.26-2,3.17,10.84.26,11.52-2,14.48-2,3.86,0,5.7,2.52,14.11,2-.36-.78-1.28-2.48-1.69-3.16C21.31,13.28,17,9.16,14,9.16"/><path class="cls-2" d="M154.57,26.28a1.06,1.06,0,0,1,.08-.4,1.14,1.14,0,0,1,.56-.56,1.06,1.06,0,0,1,.4-.08,1.11,1.11,0,0,1,.41.08,1.23,1.23,0,0,1,.33.23,1,1,0,0,1,.22.33.9.9,0,0,1,.09.4,1,1,0,0,1-.09.41,1,1,0,0,1-.55.55.94.94,0,0,1-.41.08.9.9,0,0,1-.4-.08,1,1,0,0,1-.33-.22,1.23,1.23,0,0,1-.23-.33A1.11,1.11,0,0,1,154.57,26.28Zm.19,0a.88.88,0,0,0,.06.33.92.92,0,0,0,.19.28.71.71,0,0,0,.27.18.75.75,0,0,0,.33.07.88.88,0,0,0,.61-.25.75.75,0,0,0,.18-.28.81.81,0,0,0,0-.66.75.75,0,0,0-.18-.28,1.27,1.27,0,0,0-.27-.18,1,1,0,0,0-.34-.07.93.93,0,0,0-.33.07,1.06,1.06,0,0,0-.27.18.92.92,0,0,0-.19.28A.88.88,0,0,0,154.76,26.28Zm.45-.6h.46a.47.47,0,0,1,.32.09.33.33,0,0,1,.1.27.28.28,0,0,1-.08.23.3.3,0,0,1-.2.1l.31.5h-.23l-.3-.49h-.16v.49h-.22Zm.22.52h.26l.09,0a.18.18,0,0,0,.07-.05s0-.05,0-.09,0-.07,0-.09a.12.12,0,0,0-.07-.05l-.09,0h-.26Z"/><path class="cls-1" d="M108,27.36V38.24h-2.27V27.36h-2.33V25.1h6.93v2.26Z"/><path class="cls-1" d="M115.17,38.24l-.92-5.46h-.86v5.46h-2.25V25.1h4.76a1.38,1.38,0,0,1,1.37,1.39v4.92a1.37,1.37,0,0,1-.78,1.24l.93,5.59ZM115,27.36h-1.63v3.17H115Z"/><path class="cls-1" d="M124.5,27V38.24h-2.27v-3.9h-1.64v3.9h-2.25V26.49a1.39,1.39,0,0,1,1.39-1.39h3.38a1.4,1.4,0,0,1,1.39,1.39Zm-2.27.36h-1.64v4.73h1.64Z"/><path class="cls-1" d="M129.73,33.4l2.28-.53v4a1.41,1.41,0,0,1-1.39,1.39h-3.38a1.4,1.4,0,0,1-1.39-1.39V26.49a1.39,1.39,0,0,1,1.39-1.39h3.38A1.4,1.4,0,0,1,132,26.49v2.67l-2.28.52V27.36H128.1V36h1.63Z"/><path class="cls-1" d="M137.69,31.65l2.1,6.59h-2.27l0-.07-1.69-5.39h-.2v5.46h-2.25V25.1h2.25v5.43h.17l1.72-5.43h2.29Z"/><path class="cls-1" d="M146.63,36v2.27h-6.16V25.1h6.16v2.26h-3.91v3.17h3.12v2.25h-3.12V36Z"/><path class="cls-1" d="M151.56,38.24l-.92-5.46h-.86v5.46h-2.25V25.1h4.76a1.38,1.38,0,0,1,1.37,1.39v4.92a1.36,1.36,0,0,1-.79,1.24l.94,5.59Zm-.15-10.88h-1.63v3.17h1.63Z"/></svg>