<svg xmlns="http://www.w3.org/2000/svg" viewBox="0 0 62.6 42.7"><defs><style>.cls-1{fill:#fff;}</style></defs><title>icon__whale</title><g id="Layer_2" data-name="Layer 2"><g id="Layer_1-2" data-name="Layer 1"><path class="cls-1" d="M31.82,41.47a10.89,10.89,0,0,1-2.77-2.69,2.08,2.08,0,0,0-1.87-1,8.73,8.73,0,0,1-1.35.07c-1.38,0-2.77,0-4.14-.09-1.08-.08-2.15-.35-3.23-.52a2,2,0,0,0-.48.06,1.26,1.26,0,0,0,.14.44A12.65,12.65,0,0,0,19.21,39a14.12,14.12,0,0,0,5,3,12.73,12.73,0,0,0,4.36.74,8.38,8.38,0,0,0,3.17-.63c.12,0,.29-.16.29-.27A.43.43,0,0,0,31.82,41.47Z"/><path class="cls-1" d="M62.18,4.76a10.69,10.69,0,0,1-4.13-.34A13.36,13.36,0,0,0,54.12,4,7.68,7.68,0,0,0,51,4.78a6.08,6.08,0,0,0-1.79,1.39,5.81,5.81,0,0,0-1.18-2,8.92,8.92,0,0,0-5.33-2.7A20.53,20.53,0,0,1,38.81.62C38.4.46,37.92.2,37.61.06s-.47,0-.47.27a13.48,13.48,0,0,0,1,4.25,7.34,7.34,0,0,0,4.11,4.09,21.42,21.42,0,0,1,2,.83,2.44,2.44,0,0,1,1.44,2.89A7.53,7.53,0,0,1,45.08,14a7.83,7.83,0,0,1-6.68,4.64A22.47,22.47,0,0,1,32,18.37c-1.79-.25-3.54-.64-5.33-1s-3.58-.82-5.37-1.12-3.61-.5-5.42-.66a27.53,27.53,0,0,0-4.63,0,18.45,18.45,0,0,0-6.72,1.73,9.58,9.58,0,0,0-3.9,3.43,3.67,3.67,0,0,0-.52,3,7.35,7.35,0,0,0,.9,2,16.18,16.18,0,0,0,3,3.39,32.82,32.82,0,0,0,3.87,3,28.78,28.78,0,0,0,5.8,3,27.73,27.73,0,0,0,6.2,1.48,29.79,29.79,0,0,0,6.47.11l1.19-.14c-.13-.1-.2-.21-.28-.21a15.94,15.94,0,0,1-2.57-2.22c-.23-.22-.27-.44-.1-.6a.47.47,0,0,1,.61,0c.79.5,1.58,1,2.35,1.5a15.86,15.86,0,0,0,6,2.46,11.78,11.78,0,0,0,3.7.11,9.88,9.88,0,0,0,5.77-3,.41.41,0,0,0,.11-.35.32.32,0,0,0-.26-.2,11.7,11.7,0,0,1-4-1.86c-1.08-.76-2.16-1.53-3.26-2.26-.5-.35-1-.63-1.58-.93h0a.37.37,0,0,1-.19-.49c.07-.22.26-.22.45-.22a.75.75,0,0,1,.3.09c1.07.52,2.19,1,3.19,1.57.75.36,1.44.93,2.17,1.36a1.8,1.8,0,0,0,1.82,0,5.68,5.68,0,0,0,1-.75,18.39,18.39,0,0,0,4-4.7,24.06,24.06,0,0,0,2.69-6.58c.45-1.81.74-3.67,1.07-5.52.28-1.63.9-2.3,2.51-2.51a12.47,12.47,0,0,1,1.61-.07,7.26,7.26,0,0,0,4.89-1.85,12.05,12.05,0,0,0,3-4.17C62.68,4.87,62.53,4.71,62.18,4.76ZM10.35,23.16a1.5,1.5,0,1,1,1.5-1.5A1.5,1.5,0,0,1,10.35,23.16Z"/></g></g></svg>