<svg xmlns="http://www.w3.org/2000/svg" viewBox="0 0 7.41 7.41"><defs><style>.cls-1{fill:#3097f7;}</style></defs><title>icon__pinging--blue</title><g id="Layer_2" data-name="Layer 2"><g id="Layer_2-2" data-name="Layer 2"><path class="cls-1" d="M3.71.74a3,3,0,1,0,3,3A3,3,0,0,0,3.71.74Zm0,5.62A2.65,2.65,0,1,1,6.36,3.71,2.65,2.65,0,0,1,3.71,6.36Z"/><path class="cls-1" d="M3.71,0a3.71,3.71,0,1,0,3.7,3.71A3.71,3.71,0,0,0,3.71,0Zm0,7.31a3.6,3.6,0,1,1,3.6-3.6A3.6,3.6,0,0,1,3.71,7.31Z"/><path class="cls-1" d="M3.71,1.74a2,2,0,1,0,2,2A2,2,0,0,0,3.71,1.74Z"/></g></g></svg>