<svg xmlns="http://www.w3.org/2000/svg" viewBox="0 0 235.52 83"><defs><style>.cls-1{fill:#eee;}</style></defs><title>Icon_Tiger.Shark</title><g id="Layer_2" data-name="Layer 2"><g id="Animal_Profle" data-name="Animal Profle"><path class="cls-1" d="M141.45,0c-1.63,1.39-2.1,3.37-2.37,5.31s0,4.17-.33,6.22a13.32,13.32,0,0,1-8.56,11.14l3.72-.44a14.84,14.84,0,0,1,4-.1c-2.8.5-5.61,1-8.41,1.49-3.31.57-6.64,1-9.93,1.68-4.83.94-9.64,2-14.46,3-2.6.53-5.21,1-7.82,1.46s-5.32.45-7.73-1.36a33.71,33.71,0,0,0-4.71-2.53c-1.28-.68-2.45-.23-2.73,1-1.11,4.88-5.39,5.27-9,6.63-.5.19-1,.3-2,.57l2,.51c-1.81.51-3.4,1-5,1.37a1.8,1.8,0,0,1-1.18-.47c-2.7-2.06-5.27-4.3-8.08-6.19-3.17-2.12-6.5-4-9.85-5.83-4.3-2.34-8.69-4.51-13-6.75-2.27-1.17-4.5-2.44-6.82-3.49-6.26-2.85-12.48-5.83-18.9-8.29C7.08,3.67,3.53,3.48.15,2.83L0,3.36a4,4,0,0,0,.67.43c4.08,1.52,7.8,3.53,10.18,7.39.85,1.38,1.92.14,3.11.25.8,2.91,3.35,4.45,5.54,6.33q9.15,7.9,18.27,15.83C42,37.25,46.08,41,50.2,44.67c1.67,1.51,2.6,3.2,1.88,5.67-1.09,3.77-1.95,7.6-2.73,11.44-.43,2.13-.48,4.33-.73,6.73a5.07,5.07,0,0,0,1.18-.39,35.22,35.22,0,0,0,7.84-7.24A63.84,63.84,0,0,0,66,47.24c1.63-3.48,4.5-4.11,7.88-3.76.46.05.92.12,1.58.21l-3.23.24-.05.34,3.53.53a9.73,9.73,0,0,1,1.21.13c1.12.3,2.67.4,2.74,1.75.06,1-.83,2-1.35,3a6.55,6.55,0,0,1-1,1.05,20.36,20.36,0,0,0,3.08.31,13.5,13.5,0,0,0,9.74-4.87,5.78,5.78,0,0,1,4.71-2,22.63,22.63,0,0,1,4.4.43l-1.79.57c.5.69.86,1.27,1.3,1.77.85,1,1.7,1.91,2.61,2.81a6.36,6.36,0,0,1,1.91,4.65c.05,2.1.88,2.58,2.73,1.46,2.69-1.64,5.31-3.42,7.91-5.21a5.22,5.22,0,0,1,4.2-.72c4.32.76,8.69,1.21,13,2a145.92,145.92,0,0,0,21.25,2.47c3.36.08,6.72.23,10.08.13,2.58-.07,5.61,3.43,5.42,7-.27,5.1-.41,10.22-.37,15.33a13.09,13.09,0,0,0,1.2,5c.68,1.56,2.29,1.62,3.31.26a41.89,41.89,0,0,0,4-5.79c2.29-4.44,4.45-8.95,6.41-13.54a44.5,44.5,0,0,0,1.95-7.07A2.14,2.14,0,0,1,185.92,54a62.42,62.42,0,0,1,13.55-3.06c1.62-.24,3.21-.62,4.83-.85,3.38-.46,6.84-.56,10.13-1.38a54.84,54.84,0,0,0,8.76-3.43,2.05,2.05,0,0,0,1.16-2.81c3.26-.37,6.32-1.08,8.75-3.36a13.25,13.25,0,0,0,1.75-1.92c1.42-2,.5-4-1.89-4.63-7.27-1.83-14.56-3.6-21.77-5.64a202.36,202.36,0,0,0-26.05-6c-5.95-.87-11.9-1.75-17.85-2.69A23.84,23.84,0,0,1,162.71,17a7.4,7.4,0,0,1-2.42-1.8c-3.29-3.34-6.4-6.87-9.84-10A69.45,69.45,0,0,0,143.29,0Z"/></g></g></svg>