<svg id="Layer_1" data-name="Layer 1" xmlns="http://www.w3.org/2000/svg" viewBox="0 0 16.92 16.92"><defs><style>.cls-1{fill:#010101;}</style></defs><title>icon</title><path class="cls-1" d="M9.55,4.54a.85.85,0,0,0-.42-.11.81.81,0,0,0-.61.25.82.82,0,0,0-.24.59.85.85,0,0,0,.24.6.84.84,0,0,0,1.2,0,.86.86,0,0,0,.25-.6.89.89,0,0,0-.11-.43A1,1,0,0,0,9.55,4.54Z"/><path class="cls-1" d="M8.56,12a.53.53,0,0,1-.38.19.15.15,0,0,1-.12-.07A.2.2,0,0,1,8,12a1.14,1.14,0,0,1,.1-.42L9,9a2,2,0,0,0,.14-.7.61.61,0,0,0-.27-.52,1.06,1.06,0,0,0-.66-.2A1.88,1.88,0,0,0,7.11,8a5.73,5.73,0,0,0-.93,1h.53c.08.06.2-.13.37-.35s.31-.32.45-.32a.17.17,0,0,1,.12.06.14.14,0,0,1,.06.12,1.27,1.27,0,0,1-.12.39l-.78,2.14a3.16,3.16,0,0,0-.23,1,.8.8,0,0,0,.26.59,1,1,0,0,0,.76.25,1.61,1.61,0,0,0,1.26-.55,4.43,4.43,0,0,0,.74-1.05H9A3.87,3.87,0,0,1,8.56,12Z"/><path class="cls-1" d="M8.46,0a8.46,8.46,0,1,0,8.46,8.46A8.46,8.46,0,0,0,8.46,0Zm0,15.79a7.33,7.33,0,1,1,7.33-7.33A7.34,7.34,0,0,1,8.46,15.79Z"/></svg>