<svg xmlns="http://www.w3.org/2000/svg" viewBox="0 0 284.34 95.41"><defs><style>.cls-1{fill:#eee;}</style></defs><title>icon__creature--dolphin</title><g id="Layer_2" data-name="Layer 2"><g id="Mobile_Menu" data-name="Mobile Menu"><path class="cls-1" d="M3.72,2.83c2.75,5.42,10.11,10.3,18.05,11.71s10.79-.47,13.75,6.23c.37-4.6,3.82-5.23,5.85-5.77s5-2,4.94-6S48,4.75,49.1,8.27s1,11.81-.58,17.05c-1,3-1.51,6-.79,8C58.81,37.77,78,41.22,88.18,41.11c12.67-.15,35-4,40.94-9.47s2.69-13-2.59-19-4-10.08,6.27-6.94,20,14.61,21.09,15.69,6.34,5.65,10.64,5.69,42.44-1.83,64,3.53,27.59,9,32.44,15.05,12.35,5.59,16.73,7.06,7.54,4.15,6.37,6.22c-1.77,6.69-10.37,6.6-17.22,7s-17.44,3.28-30.06,8a135.24,135.24,0,0,1-18.52,5c-2.06,8.81-9.73,12.93-16.26,14.63-8,2.07-17.1,3-17.38-.38-.19-2.16,7.24-1,11-10.54a323.61,323.61,0,0,1-47.23,2.26c-42-1-66.09-9.71-81.67-19.12C58,60.47,50.23,55.17,44.91,49c-4.19-3.8-7.55-9-9.38-9.93-2.13-1-11.27-3.22-21-12A48.17,48.17,0,0,1,.34,4.59C-.78.79,1-2.6,3.72,2.83Z"/></g></g></svg>