<svg xmlns="http://www.w3.org/2000/svg" viewBox="0 0 221.39 86.59"><defs><style>.cls-1{fill:#eee;}</style></defs><title>Icon_BlackTip.Shark</title><g id="Layer_2" data-name="Layer 2"><g id="Animal_Profle" data-name="Animal Profle"><path class="cls-1" d="M31.34,59.81c.68-1.32,1.34-2.64,2-4,1.5-2.88,3.09-5.72,4.51-8.65a2.93,2.93,0,0,0-.71-3.76c-.85-.74-1.54-1.66-2.33-2.47-2.6-2.72-5.22-5.42-7.81-8.14-1.69-1.77-3.33-3.59-5-5.36C17.91,23.23,13.78,19,9.7,14.74a28.58,28.58,0,0,1-2-2.73l-3.25.8C5.13,8.09,1,5.4,0,.9a12.65,12.65,0,0,1,2.11.89C6.09,4.53,10,7.34,14,10.06c1.4.95,3,1.61,4.41,2.52,4.12,2.63,8.18,5.39,12.32,8C37.83,25,45,29.36,52.06,33.76c4.92,3,12,1.84,16.24-2A5.83,5.83,0,0,0,69.81,29c.37-1.46,1.09-1.32,2-.75a21.07,21.07,0,0,1,1.83,1.31c2,1.56,4.25,2.84,6.91,2.55,10.3-1.15,20.63-2.14,30.87-3.72,3.75-.58,7.37-2.41,10.87-4s5.57-4.53,5.24-8.76c-.38-5-.59-10-.91-15.57,1.75.43,3.2.41,4.14,1.09,2.78,2,5.75,4,7.91,6.59,3.36,4,6.12,8.58,9.12,12.91A9.87,9.87,0,0,0,154.31,25c9.08,1.61,18.17,3.17,27.25,4.78,4.57.8,9.12,1.69,13.68,2.53,7.29,1.35,14.58,2.68,21.85,4a12.25,12.25,0,0,1,3,.93c.55.25,1.26.9,1.25,1.36a2.1,2.1,0,0,1-1.21,1.46c-2.49,1-5,2-7.58,2.81-3.62,1.19-7.29,2.27-11.15,3.46l2.44,1.39c-1,3-3.72,3-6,3.68-3,.84-6.1,1.49-9.18,2-5.55,1-11.11,2-16.69,2.83-2.48.37-4.08,1.15-5.13,3.72-2.64,6.46-5.51,12.83-8.64,19-1.3,2.57-3.48,4.71-5.33,7a1.4,1.4,0,0,1-1.27.41,1.66,1.66,0,0,1-.59-1.25c0-1.73,0-3.46,0-5.38l-4.75,3.69-.71-.34a30.73,30.73,0,0,1,0-4.7c.59-4.29,1.44-8.54,2-12.83a38,38,0,0,0,.12-5.44c0-1-.55-1.35-1.58-1.39-8.09-.29-16.18-.56-24.26-1-5.38-.31-10.75-1-16.12-1.37a5.4,5.4,0,0,0-2.16.5c-2.17.83-4.29,1.77-6.47,2.57C96,60,95.13,59.76,95,58.24c-.18-1.73-1.46-2.69-2.57-3.92-4-4.44-9.27-3.68-14.27-4.16a2.68,2.68,0,0,0-1.79.75,12.11,12.11,0,0,1-7.88,3.14A2.13,2.13,0,0,1,67,53.54c-.17-.16.07-1,.34-1.31,1.16-1.46,1-2.45-.56-3.68a14.84,14.84,0,0,0-8-3,5.49,5.49,0,0,0-4.46,1.49C49.69,51.23,45,55.36,39.25,58c-2.32,1-4.8,1.73-7.21,2.58Z"/></g></g></svg>