<svg id="Layer_1" data-name="Layer 1" xmlns="http://www.w3.org/2000/svg" viewBox="0 0 53.4 13.27"><defs><style>.cls-1{fill:#fff;}</style></defs><title>icon</title><path class="cls-1" d="M51.13,1.23a1.06,1.06,0,0,1,.08-.4A1,1,0,0,1,51.44.5a1,1,0,0,1,.33-.23,1.06,1.06,0,0,1,.4-.08,1.11,1.11,0,0,1,.41.08,1.23,1.23,0,0,1,.33.23,1,1,0,0,1,.22.33.9.9,0,0,1,.08.4.94.94,0,0,1-.08.41,1.19,1.19,0,0,1-.22.33,1.19,1.19,0,0,1-.33.22.94.94,0,0,1-.41.08.9.9,0,0,1-.4-.08A1,1,0,0,1,51.44,2a1.23,1.23,0,0,1-.23-.33A1.11,1.11,0,0,1,51.13,1.23Zm.19,0a.88.88,0,0,0,.06.33.92.92,0,0,0,.19.28.64.64,0,0,0,.27.18.72.72,0,0,0,.33.07A.8.8,0,0,0,52.51,2a.8.8,0,0,0,.27-.18A.75.75,0,0,0,53,1.56.72.72,0,0,0,53,1.23.72.72,0,0,0,53,.9a.75.75,0,0,0-.18-.28,1.27,1.27,0,0,0-.27-.18,1,1,0,0,0-.34-.07.88.88,0,0,0-.33.07.91.91,0,0,0-.27.18.92.92,0,0,0-.19.28A.88.88,0,0,0,51.32,1.23Zm.45-.6h.46a.49.49,0,0,1,.32.09.33.33,0,0,1,.1.27.32.32,0,0,1-.08.23.3.3,0,0,1-.2.1l.31.5h-.23l-.3-.49H52v.49h-.22Zm.22.52h.26l.09,0a.18.18,0,0,0,.07-.05.21.21,0,0,0,0-.18.12.12,0,0,0-.07-.05l-.09,0H52Z"/><path class="cls-1" d="M4.6,2.31V13.19H2.33V2.31H0V.05H6.93V2.31Z"/><path class="cls-1" d="M11.73,13.19l-.92-5.46H10v5.46H7.69V.05h4.77a1.38,1.38,0,0,1,1.37,1.39V6.36A1.36,1.36,0,0,1,13,7.6L14,13.19ZM11.58,2.31H10V5.48h1.63Z"/><path class="cls-1" d="M21.06,2V13.19H18.79V9.29H17.15v3.9H14.9V1.44A1.39,1.39,0,0,1,16.29.05h3.38a1.4,1.4,0,0,1,1.39,1.39Zm-2.27.36H17.15V7h1.64Z"/><path class="cls-1" d="M26.29,8.35l2.28-.53v4a1.41,1.41,0,0,1-1.39,1.39H23.8a1.4,1.4,0,0,1-1.39-1.39V1.44A1.39,1.39,0,0,1,23.8.05h3.38a1.4,1.4,0,0,1,1.39,1.39V4.11l-2.28.52V2.31H24.66v8.61h1.63Z"/><path class="cls-1" d="M34.25,6.6l2.1,6.59H34.08l0-.07L32.37,7.73h-.2v5.46H29.91V.05h2.26V5.48h.17L34.06.05h2.29Z"/><path class="cls-1" d="M43.19,10.92v2.27H37V.05h6.16V2.31H39.28V5.48H42.4V7.73H39.28v3.19Z"/><path class="cls-1" d="M48.12,13.19,47.2,7.73h-.86v5.46H44.08V.05h4.77a1.38,1.38,0,0,1,1.37,1.39V6.36a1.36,1.36,0,0,1-.79,1.24l.94,5.59ZM48,2.31H46.34V5.48H48Z"/></svg>