<svg xmlns="http://www.w3.org/2000/svg" viewBox="0 0 12.51 10.69"><defs><style>.cls-1{fill:#3097f7;}</style></defs><title>track--blue</title><g id="Layer_2" data-name="Layer 2"><g id="Layer_2-2" data-name="Layer 2"><path class="cls-1" d="M10.84,6.12a.83.83,0,1,1,.83-.83.83.83,0,0,1-.83.83m-9.17,0a.83.83,0,1,1,0-1.66.83.83,0,0,1,0,1.66m9.17-2.5A1.66,1.66,0,0,0,9.23,4.89c-1.29.17-1.7,1.74-2,3-.24,1-.5,1.95-1,1.95-.31,0-.38-.11-.41-.15-.41-.56.25-2.54.78-4.13.69-2.1,1.35-4.09.67-5A1.37,1.37,0,0,0,6.1,0c-1,0-1.33,1.25-1.63,2.45s-.6,2.22-1.2,2.39a1.68,1.68,0,1,0,0,.85c1.29-.16,1.68-1.75,2-3,.2-.81.45-1.82.82-1.82A.53.53,0,0,1,6.59,1c.44.6-.24,2.65-.79,4.29-.7,2.13-1.32,4-.66,4.88a1.24,1.24,0,0,0,1.09.5c1.12,0,1.45-1.31,1.78-2.58s.62-2.19,1.23-2.37a1.67,1.67,0,1,0,1.6-2.12"/></g></g></svg>