<svg id="Layer_1" data-name="Layer 1" xmlns="http://www.w3.org/2000/svg" viewBox="0 0 13.61 13.38"><defs><style>.cls-1{fill:#fff;}</style></defs><title>icon</title><path class="cls-1" d="M12.65,5.07H7.93V3.22h4.72Zm-1,7.36H7.93V6H11.7ZM8.91,1.19a1,1,0,0,1,.75,1H7.72c0-.51.74-1,1.19-1M4,2.2c0-.41.26-1,.75-1a1.27,1.27,0,0,1,1.19,1ZM5.7,5.07H1V3.22H5.7Zm0,7.36H1.93V6H5.7ZM10.91,2.2a2.13,2.13,0,0,0-2-2.2,2.77,2.77,0,0,0-2.1,1.2A2.75,2.75,0,0,0,4.72,0a2.13,2.13,0,0,0-2,2.2H0V6H1v7.35H12.65V6h1V2.2Z"/></svg>