<svg id="Layer_1" data-name="Layer 1" xmlns="http://www.w3.org/2000/svg" viewBox="0 0 16.92 16.92"><defs><style>.cls-1{fill:#051c3c;}</style></defs><title>icon</title><path class="cls-1" d="M8.46,15.79A7.34,7.34,0,0,1,1.71,5.59c0,2.17,1.83,1.82,2.39,2s.59.43.11.9c-.81.79.59,2,.59,2,.31.58.09,1.72.54,3s1.41-.23,1.72-1.12a16.81,16.81,0,0,0,1-3.45c.2-1.43-2.71-1-3.82-1.62s-1-1-.83-1.45a.79.79,0,0,1,.88-.51c.64.31.69.69,1,.46s-.53-.61.17-1.12c.51-.37.93-.75.81-1.39-.17-.89,1.45-1.55,0-1.7a7.13,7.13,0,0,1,2.23-.35,7.28,7.28,0,0,1,5.12,2.1c-1.6.22-2.14,0-2.6.28s-1.06,1-.35,1.12,1.86.44.31.93a4.13,4.13,0,0,0-1.21.62c-.48.28-1.08,1.51.44,1.6,1.18.07,1,.88,1,1.45,0,.74.46,3.12.94,3.11,1.34,0,1.1-2.66,2.12-3,.41-.35-.17-1.87.52-1.93.43,0,.62-.39.83-.49a7.22,7.22,0,0,1,.17,1.55,7.34,7.34,0,0,1-7.33,7.33M8.46,0a8.46,8.46,0,1,0,8.46,8.46A8.46,8.46,0,0,0,8.46,0"/></svg>