<?xml version="1.0" encoding="utf-8"?>
<!-- Generator: Adobe Illustrator 22.1.0, SVG Export Plug-In . SVG Version: 6.00 Build 0)  -->
<svg version="1.1" id="Layer_1" xmlns="http://www.w3.org/2000/svg" xmlns:xlink="http://www.w3.org/1999/xlink" x="0px" y="0px"
	 width="20px" height="20px" viewBox="0 0 20 20" style="enable-background:new 0 0 20 20;" xml:space="preserve">
<style type="text/css">
	.st0{fill:#58AEE1;}
	.st1{fill:#FFFFFF;}
</style>
<path class="st0" d="M20,10c0,5.5-4.5,10-10,10S0,15.5,0,10S4.5,0,10,0c0,0,0,0,0,0C15.5,0,20,4.5,20,10"/>
<path class="st1" d="M3.7,11.2c-0.2,0-0.4-0.2-0.4-0.4c0-0.2,0.2-0.4,0.4-0.4c0.2,0,0.4,0.2,0.4,0.4C4.1,11,3.9,11.2,3.7,11.2
	C3.7,11.2,3.7,11.2,3.7,11.2 M16.1,11.4c-1.2-1.9-3-3.4-5.1-4.3c-0.4-0.2-1.2-0.4-0.4-1.8c0,0-1.6-0.9-2.4,1.2
	c-0.8,0.1-7.5,2-5.6,5.4c0,0-1,0.8-0.5,1.2c0.5,0.4,0.9-0.8,3-1.5c0.7,1,2.2,1.3,3.2,0.6C8,12.1,7.7,12,7.5,11.7
	c-0.3-0.4-0.4-0.9-0.3-1.3h0.1h0.2l0,0c0,0.1,0,0.3,0,0.4c1.4-0.2,2.9-0.3,4.3-0.3c1.3,0,2.6,0.5,3.7,1.3c-0.5,0.6-0.5,1.5,0.1,2
	c0,0,0,0,0,0c0.2-1.1,1.2-1.9,2.4-1.7C17.6,11.5,16.5,11.1,16.1,11.4"/>
</svg>
