<svg xmlns="http://www.w3.org/2000/svg" viewBox="0 0 154.25 109.32"><defs><style>.cls-1{fill:#eee;}</style></defs><title>icon__creature--seal</title><g id="Layer_2" data-name="Layer 2"><g id="Mobile_Menu" data-name="Mobile Menu"><path class="cls-1" d="M77.57,43.4c-91.87-3-79.84,41.46-72.88,52.79,15.7,25.57,11.68-10.74,24.87-6.81,9.45,2.8,20.75,8,33.62,2.91A14.23,14.23,0,0,0,68.91,81.7c.41,1.93.13,7.4-3.13,12.66-2.46,5.66-7.55,7-8.19,11.18-.92,6,25.46,6.88,41.86-12.34,6.1,5.34,29.65,16.8,30.72,9.88s-17.85-20.47-16.06-27.61,8.72-24.66,15.08-43.62c3-9.09,5.27-7.67,12.41-8.76,14.34-2.19,12.58-18.75,12.58-18.75L127,.15C105-3,97.39,44.05,77.57,43.4"/></g></g></svg>