<svg xmlns="http://www.w3.org/2000/svg" viewBox="0 0 235.36 90.43"><defs><style>.cls-1{fill:#eee;}</style></defs><title>Icon_Bull.Shark</title><g id="Layer_2" data-name="Layer 2"><g id="Animal_Profle" data-name="Animal Profle"><path class="cls-1" d="M233.61,18.29a58.17,58.17,0,0,0-6.19-.18c-2.24.11-4.49.24-6.73.38-1.82.11-3.64.26-5.47.29-1.65,0-3.29.23-4.94.38a16.44,16.44,0,0,1-3.57.22.58.58,0,0,0-.61.17c-.07.1-.2.09-.32,0a2.54,2.54,0,0,0-1.47,0,5.38,5.38,0,0,1-1.33,0c-.88-.08-1.75,0-2.62,0-.35,0-.67.11-1,.11-.76,0-1.53-.06-2.28,0-1.8.14-3.61.11-5.41.21-2.12.12-4.25.16-6.37.27s-4.05.27-6.07.36-4,.15-6,.15-3.93,0-5.89-.12c-2.45-.14-4.89-.33-7.33-.52-1.87-.14-3.74-.38-5.61-.43a6.82,6.82,0,0,1-5-2.51c-1.19-1.3-2.22-2.73-3.29-4.12s-2.29-3.06-3.41-4.6c-1.4-1.94-2.78-3.91-4.18-5.85A6.86,6.86,0,0,0,135.78,0h-.71a2,2,0,0,0-1,.8,13.76,13.76,0,0,0-1,2c-.72,1.77-1.11,3.65-1.91,5.39a23.37,23.37,0,0,1-2,3.82,26.63,26.63,0,0,1-4.41,4.53c-.57.49-1.34.65-1.92,1.12-.11.1-.3.14-.25.34s.2.17.33.19a30.1,30.1,0,0,0,3.43.66c.56,0,1.23-.15,1.69.46.16.21.21.3,0,.44a2.76,2.76,0,0,1-1,.34c-.16,0-.43,0-.45.16-.07.35-.31.29-.53.32a4.72,4.72,0,0,0-.85.15,16.58,16.58,0,0,1-4.65.65c-1.41.09-2.84.11-4.24.31-2.15.31-4.28.67-6.42,1s-4,.55-6.07.86q-5.67.89-11.33,1.8-2.73.43-5.45.94c-2.13.4-4.25.82-6.38,1.26-1.39.28-2.77.58-4.16.89-1.16.26-2.33.47-3.46.83-1.48.46-3,.76-4.5,1.2-.09,0-.25.15-.3,0s.11-.19.24-.25a8.22,8.22,0,0,0,1.52-.56,1.28,1.28,0,0,0-.83-.29,2.37,2.37,0,0,1-1.56-.7,5.75,5.75,0,0,0-2.07-1.14,3.46,3.46,0,0,0-2.72.5,3.25,3.25,0,0,1-1.48.42c-1,0-1.95-.11-2.93-.09-.25,0-.61,0-.64.29s.34.29.57.36c.55.18,1.1.34,1.64.54.24.1.64.32.47.54-.31.38-.55.92-1.09,1.05a7.54,7.54,0,0,1-1.56.23c-2.23.07-4.46.11-6.7.15a6.77,6.77,0,0,0-1.74.11l-.88,0a1.25,1.25,0,0,0-.28-.13,9.34,9.34,0,0,1-1.48-.67,43.46,43.46,0,0,1-4.72-3.59c-1.27-1.06-2.47-2.22-3.74-3.27a84.65,84.65,0,0,0-7.07-5.45C29,17,26.89,15.53,24.74,14.13c-2-1.29-4-2.46-6-3.72s-4.25-2.64-6.42-3.89C10,5.16,7.59,3.94,5.15,2.78A11.37,11.37,0,0,0,.75,1.37c-.24,0-.53-.16-.69.11s.1.49.23.72a1,1,0,0,0,.15.2A13.91,13.91,0,0,1,3.65,8.19a.8.8,0,0,0,.65.62,3.92,3.92,0,0,0,1.32,0,1.5,1.5,0,0,1,1.71.93l.09.18a10.87,10.87,0,0,0,1.39,2.28c1.36,1.5,2.71,3,4,4.55a107.62,107.62,0,0,0,7.71,8.27,51.38,51.38,0,0,1,5.25,5.49A38,38,0,0,1,30.88,38a6.69,6.69,0,0,1,.28,5.08A78.88,78.88,0,0,1,27.77,51a12.28,12.28,0,0,0-1.14,3.8c-.05.54.23,1.17.59,1.23a1.87,1.87,0,0,0,1.19-.1,29,29,0,0,0,5.15-3.21c3.14-2.47,6-5.24,8.88-8a20.8,20.8,0,0,1,4.64-3.59,4.76,4.76,0,0,1,2.27-.76c1,0,1.94.32,2.94.33a21.33,21.33,0,0,1,2.42.39c1.82.23,3.62.62,5.43.94.45.08.9.07,1,.72,0,.25,0,.41-.18.56a1.16,1.16,0,0,1-.78.29,21.9,21.9,0,0,0-2.67.34c-.23,0-.6.13-.58.39s.39.24.63.24c.85,0,1.7,0,2.54,0a14.09,14.09,0,0,1,2.43.13c.65.12.74.31.62.93a4.57,4.57,0,0,1-.8,1.68,9,9,0,0,0-.85,1.66c-.16.38,0,.61.36.56a4.28,4.28,0,0,0,2.36-.82c1.62-1.45,3-3.19,4.67-4.55a.16.16,0,0,0,.07-.17c-.21-.53.11-.44.42-.37,1.74.42,3.47.89,5.22,1.25,2.2.47,4.36,1.11,6.57,1.51.61.11,1.22.26,1.83.39,1.61.34,3.07,1.3,4.8,1.17l.1,0a14.56,14.56,0,0,0,3.07.63,51.38,51.38,0,0,1,7.43,2.05c1.51.51,3,1,4.54,1.43a6.23,6.23,0,0,1,1.5.41l-.61.43c-1.26.8-2.57,1.51-3.75,2.42-.14.11-.35.2-.32.42s.24.32.43.37a6.06,6.06,0,0,0,.74.15,9.26,9.26,0,0,1,1.3.2c.73.24,1.45.54,2.17.84A14.45,14.45,0,0,1,108,59.38a5.39,5.39,0,0,1,.78.87c.62.79,1.35,1.27,2.36.35a17.55,17.55,0,0,0,1.44-1.42,32.42,32.42,0,0,1,3.11-3.41,1,1,0,0,1,.8-.36,17.25,17.25,0,0,1,1.75.29,27.1,27.1,0,0,0,2.92.62c1.58.19,3.11.64,4.7.78,1.38.13,2.78.37,4.15.63s2.55.4,3.8.67a14.48,14.48,0,0,0,4.81.59,13.73,13.73,0,0,1,2.57-.07,8.24,8.24,0,0,1,1.72.09,16.57,16.57,0,0,0,4.14.44A34.77,34.77,0,0,0,153.6,59a3.72,3.72,0,0,1,2.41.23,2.74,2.74,0,0,0,1.89.45,10.8,10.8,0,0,0,1.6-.22c.12,0,.24-.06.33,0a2.07,2.07,0,0,1,.7,1,8.82,8.82,0,0,1-.07,4.21,71.28,71.28,0,0,0-1.7,7.39,47.16,47.16,0,0,0-.51,9,3.51,3.51,0,0,0,.29,1.53c.12.21.26.45.53.39a3.43,3.43,0,0,0,1.72-.69,56.07,56.07,0,0,0,4-4,41.79,41.79,0,0,0,5.22-7.64c.38-.68.78-1.35,1.17-2a21.63,21.63,0,0,1,.26,2.38c.09,3.22.15,6.45.24,9.68.06,2.38-.15,4.78.41,7.13.22.88.16,1.87.94,2.55h.71a20.67,20.67,0,0,0,1.88-2,33.09,33.09,0,0,0,3.4-5.62c1.11-2.35,2-4.79,3.06-7.17a60.54,60.54,0,0,0,2.1-6,55.43,55.43,0,0,0,1.71-6.71c.28-1.56.61-3.11.89-4.67.25-1.33.55-2.65.82-4a.7.7,0,0,1,.31-.44,11,11,0,0,1,3.74-1.53,35.55,35.55,0,0,0,4.73-1.71c1.11-.46,2.24-.88,3.32-1.4,2.77-1.36,5.73-2.3,8.5-3.69a16.82,16.82,0,0,1,2.8-1.06,13.23,13.23,0,0,0,2.62-1.07,7.41,7.41,0,0,1,1.46-.58,2.75,2.75,0,0,0,1.07-.56,1,1,0,0,1,.37-.25,19.44,19.44,0,0,0,3-1.46,5,5,0,0,0,1.48-1.14.58.58,0,0,0,.06-.85c-.55-.82-.54-.83-1-.71,0,0-.08,0-.09,0-.44-.38-1,.13-1.43-.15-.1-.06-.22-.07-.22.09,0,.53-.27.25-.52.22a4.06,4.06,0,0,1-1.38-.17c-.15-.07-.43,0-.4-.24s.31-.47.52-.37c.71.33.58-.32.77-.6s0-.38.18-.44.21.27.4.36c.25-.24.21-.6.4-.86.3-.42.29-.43.59,0,.13-.27.25-.52.38-.77s.27-.28.39,0,.23.13.32,0,.06-.24.13-.32,0-.58.42-.32c0,0,.1-.08.14-.13a9,9,0,0,1,1.73-1.47,2.57,2.57,0,0,0,.66-1,3.46,3.46,0,0,1,.7-.91c.7-.71,1.32-1.5,2.05-2.18,1.26-1.18,2.59-2.27,3.88-3.42,1.46-1.3,3.07-2.44,4.41-3.89a6.81,6.81,0,0,0,1.23-1.73V19A2.58,2.58,0,0,0,233.61,18.29Z"/></g></g></svg>