<svg id="Layer_1" data-name="Layer 1" xmlns="http://www.w3.org/2000/svg" viewBox="0 0 14.68 11.79"><defs><style>.cls-1{fill:#fff;}</style></defs><title>icon</title><path class="cls-1" d="M1.87,2,4.2,3a20.92,20.92,0,0,1,.18,3,15.33,15.33,0,0,1-.25,2.94l-2.26.93a16.26,16.26,0,0,0,.48-3.9A16.24,16.24,0,0,0,1.87,2M8.51,7.07c0-.36.05-.77.05-1.18s0-.79-.06-1.17c1.2.49,2.17.87,2.93,1.17L8.51,7.07M7.43,5.89a14.68,14.68,0,0,1-.11,1.66l-2,.8a17.13,17.13,0,0,0,.16-2.43,22.51,22.51,0,0,0-.12-2.47l1.93.79a16.5,16.5,0,0,1,.11,1.65m7.25,0C14.18,5.89,0,0,0,0A14.36,14.36,0,0,1,1.22,5.89,14.38,14.38,0,0,1,0,11.79s14.19-5.9,14.68-5.9"/></svg>