<svg xmlns="http://www.w3.org/2000/svg" viewBox="0 0 11.24 11"><defs><style>.cls-1{fill:#3097f7;}</style></defs><title>icon__heart--blue</title><g id="Layer_2" data-name="Layer 2"><g id="Layer_2-2" data-name="Layer 2"><path class="cls-1" d="M5.44,9.91C2,7.51.5,3.63,1,1.89c.13-.43.43-1,1.56-1A2.82,2.82,0,0,1,4.82,2.4l.3.6,1,0,.34-.58a2.81,2.81,0,0,1,2.3-1.36c1.13,0,1.4.61,1.51,1C10.68,3.89,9,7.69,5.44,9.91M8.76.16A3.77,3.77,0,0,0,5.64,2a3.78,3.78,0,0,0-3-2C-2-.12-.15,7.53,5.41,11,11.13,7.82,13.38.27,8.76.16"/></g></g></svg>