<svg xmlns="http://www.w3.org/2000/svg" viewBox="0 0 14.83 8.02"><defs><style>.cls-1{fill:#fff;}</style></defs><title>icon__turtle</title><g id="Layer_2" data-name="Layer 2"><g id="Map_Tracker_Nav" data-name="Map &amp; Tracker Nav"><path class="cls-1" d="M4.66.81c-2.33,1-.14,7.5,10.17,2.72,0,0-5.07-4.87-10.17-2.72"/><path class="cls-1" d="M4.83,4.56A3.51,3.51,0,0,1,3.78,3.32c-.43.43-.91,1-.91,1.26C2.87,5.11,3.06,8,6.1,8,8,8,3.91,6.35,4.83,4.56"/><path class="cls-1" d="M13.39,4.94c-.37,0-.59-.08-.59-.26-.63.22-1.21.4-1.75.53a3,3,0,0,0,2.8,2.32c1,0,.58-2.59-.46-2.59"/><path class="cls-1" d="M1.53,1.06a.3.3,0,0,1-.3-.31.29.29,0,0,1,.3-.3.3.3,0,0,1,.31.3.31.31,0,0,1-.31.31m2,.9A1.74,1.74,0,0,1,4.27.69,4.5,4.5,0,0,0,2.18,0C.89,0,.15,0,0,1.13s1.89.09,3.55,1.51a2.61,2.61,0,0,1,0-.68"/></g></g></svg>