<svg xmlns="http://www.w3.org/2000/svg" viewBox="0 0 308.28 115.33"><defs><style>.cls-1{fill:#eee;}</style></defs><title>Asset 2</title><g id="Layer_2" data-name="Layer 2"><g id="Animal_Tile" data-name="Animal Tile"><path class="cls-1" d="M3.17.58C26.43,8.49,68.91,40.14,70.74,41.72s4.13,3.41,7.06,3.65c3.49-.07,8.92-.47,16-1.33,1.12-.56.69-.69-2.19-.86-4.48-.56-2.6-2.49-.81-2.47,4.67.32,5.8-.65,5.8-.65,2.48-.77,5.48,1.46,5.48,1.46a7.14,7.14,0,0,0,3.42.86l1.82-.29c14.58-2.21,45.77-9,72.5-12,1.92-.22,4.27-.83-.44-1.72S174,26.94,176.23,25c.07-.06.42-.3.52-.36,6.66-4.15,6.13-10.51,7.69-17.35s7.06-2.92,9.13,1.1,11.52,18.3,12.21,19.15a4.87,4.87,0,0,0,2,1.24,2.12,2.12,0,0,0,.41.1c1.43.09,2.79.23,4.08.4,26.3,3.58,85.54-.81,93.82-.73s-10.06,12.66-10.06,12.66c-1.82,1.3-3.25,2.56-3.33,3s.89.65-.73,1.62c-12.91,8.36-9.82,7.71-2.76,7.71s-6,5.6-6,5.6a161.07,161.07,0,0,1-33.56,13.41.53.53,0,0,0-.35.41c-.21,3.29-2.2,30.53-11.57,40.47-9.38,9.38-7.67-18.38-8.89-27.14s-7-8.28-7-8.28a229.72,229.72,0,0,1-29.55,1.66c-6.94,0-15.94-1.4-24-3a1.17,1.17,0,0,0-1.43.82c-.4,1.13-2.35,5.27-5.94,4.6s-4.75-2-8.82-2.86-4-2.5-.55-4.26.22-1.94-3.24-3c-17.25-3.19-32-6.12-43.22-8.43,0,0-.76-.24-1,.27s-4.7,5.32-6.08,6.13-2.47.86-3.61-2-3.24-3.44-6-3.4-5.56-2.36.93-2.84c4.75.12,5.65.06,4.77-.46-6.86-1.49-11.06-2.48-12-2.79-5.11-1.7-6.86-1.22-11.08,2.68-17,21.91-30,22.23-27.27,17.2,15.42-22.07,6.33-25.64-.48-33.92C37.38,37.7,29.28,31,22.28,24,21.11,22.86,12,13.54,11.51,12.93s-2.25-1.46-3-.61S7,13.84,6,11.65,5.2,10.19,3.17,7.11C-4-2.87,3.17.58,3.17.58Z"/></g></g></svg>