<svg xmlns="http://www.w3.org/2000/svg" viewBox="0 0 238.67 93.63"><defs><style>.cls-1{fill:#eee;}</style></defs><title>Icon_Blue.Shark</title><g id="Layer_2" data-name="Layer 2"><g id="Animal_Profle" data-name="Animal Profle"><path class="cls-1" d="M121.28,18.15l8.6.54.05.55c-.84.15-1.68.36-2.54.45-11.68,1.22-23.36,2.41-35,3.64-5.92.62-11.73.66-17-2.66-2-1.25-3.58-1.05-5.16,1.07-1.31,1.74-3.29,3-4.91,4.36l6.26.39.08.59a7.6,7.6,0,0,1-1.52.57c-4.66.56-9.32,1.15-14,1.52-.84.07-1.79-.77-2.63-1.3-4.83-3-9.34-6.81-14.54-8.92C28.15,14.57,17,11.28,5.12,12.18A49.65,49.65,0,0,0,0,13.07v.73c.36.2.7.45,1.07.61a53.21,53.21,0,0,1,7,3c3,1.78,5.71,3.06,8.35.59C22,22.43,27.31,26.63,32.58,30.91,34,32,35.06,33.55,36.5,34.6c2.26,1.65,2.56,3.16.27,6.26A53,53,0,0,1,31.91,46c-.33.34-.81.6-1,1-.52,1.29-.92,2.63-1.36,3.94,1.32.07,2.9.65,3.91.13,5.24-2.76,10.34-5.78,15.49-8.73a11.59,11.59,0,0,0,2.13-1.45c4.15-4,9.1-4.38,14.43-3.38,2,.38,4.11.49,6.17.72v.62l-2.49.72.91-.87a13.49,13.49,0,0,1,1.76,3.41c.24,1.18-.16,2.5-.34,4.37,1.86-.62,3.66-1.13,5.39-1.83a13.27,13.27,0,0,0,3.26-1.85c5.31-4.3,11-1.78,16.52-1.35l.08.78-5.57.37,0,.63a4.79,4.79,0,0,0,1.65.47c2.85-.27,4.75,1.12,6.28,3.33a8.33,8.33,0,0,0,1.45,1.52c2.44,2.13,3.41,2.53,5.64.25,3.26-3.36,6.94-3.09,11-2.72,6.39.58,12.79,1.11,19.2,1.35,8.93.34,17.86.44,26.79.53a3.07,3.07,0,0,1,3.39,2.33c2.43,6.06,1.34,12.06,0,18-1.63,7.4-3.66,14.72-5.39,22.11-.24,1,.27,2.17.43,3.26,1.08-.23,2.33-.19,3.21-.74,5.77-3.62,9.14-9.23,11.64-15.27,3.14-7.59,5.78-15.37,8.66-23.07,1-2.63,1.95-5.3,3.17-7.83a3.58,3.58,0,0,1,2.45-1.62c7.16-.81,14.35-1.32,21.5-2.24,2.07-.26,4-1.7,6-2.35a25.47,25.47,0,0,1,6.49-1.45c4.75-.21,8.61-2.76,12.81-4.4.52-.21,1.24-1.29,1.09-1.6a3.67,3.67,0,0,0-1.82-1.88A126,126,0,0,0,223.15,27c-9.11-1.91-18.26-3.8-27.49-5-10.71-1.35-21.53-1.91-32.3-2.8-3.67-.31-7.34-.65-11-.79-3.08-.11-5-2-6.87-4-3.51-3.78-7-7.64-10.57-11.34A14.43,14.43,0,0,0,131,.5c-2.37-1.19-4.3-.22-4.57,2.42a25.49,25.49,0,0,0,.19,5.85c.78,6.25.75,6.37-5,8.67-.21.08-.4.2-.6.3Z"/></g></g></svg>