<?xml version="1.0" encoding="utf-8"?>
<!-- Generator: Adobe Illustrator 22.1.0, SVG Export Plug-In . SVG Version: 6.00 Build 0)  -->
<svg version="1.1" id="Layer_1" xmlns="http://www.w3.org/2000/svg" xmlns:xlink="http://www.w3.org/1999/xlink" x="0px" y="0px"
	 width="20px" height="20px" viewBox="0 0 20 20" style="enable-background:new 0 0 20 20;" xml:space="preserve">
<style type="text/css">
	.st0{fill:#498DCB;}
	.st1{fill:#FFFFFF;}
</style>
<path class="st0" d="M20,10c0,5.5-4.5,10-10,10S0,15.5,0,10S4.5,0,10,0c0,0,0,0,0,0C15.5,0,20,4.5,20,10"/>
<path class="st1" d="M3.6,10.5c-0.2,0-0.3-0.1-0.4-0.3c0,0,0,0,0,0c0-0.2,0.1-0.4,0.3-0.4C3.7,9.7,3.9,9.8,4,10c0,0,0,0.1,0,0.1
	C4,10.4,3.8,10.5,3.6,10.5C3.6,10.5,3.6,10.5,3.6,10.5 M18.4,7.6c-1.3,0.1-2.5,0.9-3.1,2c-1.5-0.2-3-0.6-4.4-1.1
	C10,8.3,9.7,6.8,10.4,5.3C9,5.5,8.1,6.8,7.4,7.8s-5.2,1.1-5.8,2.7c0,0,0.8,1.3,5.1,1.3c-0.1-0.3-0.1-0.5-0.1-0.8h0.1h0.1
	c0,0.4,0.1,0.9,0.4,1.2c0.6,0.5,1.5,0.8,2.3,0.6C9.2,12.5,9,12.1,9,11.6c1.4,0,2.7-0.1,4.1-0.4c0.2,0.2,0.5,0.3,0.8,0.4
	c0.1-0.4,0.6-0.6,1-0.4c0.1,0,0.2,0.1,0.2,0.1c0.3,0.2,1.2,1.8,2.2,1.8c-0.3-0.6-0.5-1.3-0.5-2C16.8,10.1,18.5,7.6,18.4,7.6"/>
</svg>
