<svg xmlns="http://www.w3.org/2000/svg" viewBox="0 0 222.53 89.74"><defs><style>.cls-1{fill:#eee;}</style></defs><title>Icon_Mako.Shark</title><g id="Layer_2" data-name="Layer 2"><g id="Animal_Profle" data-name="Animal Profle"><path class="cls-1" d="M62.82,31.25c-1.89,1.2-1.73,1.68-4.06,2-3.93.61-10.53,1.63-14.48,1.33-1.79-.14-3.84-1.57-5.13-3-9.32-10.3-21-16.68-34-20.8a26.16,26.16,0,0,0-4.72-.61L0,11.29c2.57,2.44,5.08,4.95,7.73,7.29,6.9,6.08,12.52,13.05,15.06,22a12,12,0,0,1-.21,5.76c-1.47,6.12-3.19,12.18-4.79,18.27-.34,1.27-.57,2.58-1.07,4.89a42.24,42.24,0,0,0,4.86-2.64C28.89,61.47,34.63,54.82,38,46.18c2.44-6.28,3.05-6.46,9.41-4.81a54,54,0,0,1,6.94,2,34,34,0,0,1,3.82,1.77c.66.37.6,1.24.9,1.9,1.59-1.12,1.36-1.48,2.23-1.19,1.72.57,4.42,1.41,6.6,2.18,6.25,2.22,12.53,4.39,18.86,6.37,2.69.83,3,1.83,4.68,5.38.24.06,4.57-2.34,8.29-1.11,13.23,4.36,28.13,7.67,42.21,6.79,1.94-.12,3.86-.4,5.56-.58,2.15,7.58.25,8.87.22,16.08,0,4.33-.4,8.63.76,8.8s5.31-5.49,7-8.66c3.12-5.73,5.3-10.86,8.38-16.61A5.29,5.29,0,0,1,167.36,62c5.92-.68,10.11.11,17.8-1.51,1.88-.39,12.93-4,14.68-4.75,4-1.75,5.88-2.34,9.76-5.46,1.35-1.09,2.6-1.44,2.3-2.35-.64-.95-3.68-.44-5.08-.95,6.4-2.38,16.36-11.67,15.68-12.36.18-.56-7.48-1.75-10.88-2.35-13.08-2.3-26.14-4.82-39.28-6.66a189.31,189.31,0,0,0-23.79-2c-4.26-.12-7-4.82-7.68-5.87-2.6-3.88-4.39-7.46-6.82-10.16-3-3.29-9-7.7-10.39-7.55-1.14.61-1.8,3.15-2,6.22,0,0,.43,5.27-.23,8a12.48,12.48,0,0,1-3.1,6.22c-3,4.17-6.32,3.74-10.4,4.44-12.3,2.1-18.77,3.41-31,5.64-2.71.49-7.33,1.38-10.06,1.57C64.84,32.26,64.85,31.86,62.82,31.25Z"/></g></g></svg>