<svg xmlns="http://www.w3.org/2000/svg" viewBox="0 0 44 45.44"><defs><style>.cls-1{fill:#fff;}</style></defs><title>icon__hotel</title><g id="Layer_2" data-name="Layer 2"><g id="Layer_1-2" data-name="Layer 1"><g id="New_Design" data-name="New Design"><path class="cls-1" d="M34.07,0H9.93A1.43,1.43,0,0,0,8.51,1.42V44a1.43,1.43,0,0,0,1.42,1.42h2.84V41.18a1.41,1.41,0,0,1,1.36-1.46h1.48A1.41,1.41,0,0,1,17,41.15v4.29h2.84V41.18a1.41,1.41,0,0,1,1.36-1.46h1.51a1.41,1.41,0,0,1,1.42,1.4V45.4H27V41.18a1.41,1.41,0,0,1,1.36-1.46h1.45a1.43,1.43,0,0,1,1.42,1.42V45.4h2.84A1.44,1.44,0,0,0,35.49,44V1.42A1.44,1.44,0,0,0,34.07,0ZM19.87,4.26h4.26V8.52H19.87Zm0,8.52h4.26V17H19.87Zm0,8.52h4.26v4.26H19.87Zm0,8.52h4.26v4.26H19.87ZM12.77,4.26H17V8.52H12.77Zm0,8.52H17V17H12.77Zm0,8.52H17v4.26H12.77Zm0,12.78V29.82H17v4.26ZM27,38.34H17V35.5H27Zm4.26-5.92H27V29.25h4.26Zm0-6.86H27V21.3h4.26Zm0-8.52H27V12.78h4.26Zm0-8.52H27V4.26h4.26Z"/><path class="cls-1" d="M0,9.94V44a1.43,1.43,0,0,0,1.42,1.42V41.18a1.41,1.41,0,0,1,1.36-1.46H4.25a1.41,1.41,0,0,1,1.42,1.4V45.4H7.09V8.52H1.41A1.42,1.42,0,0,0,0,9.94ZM5.68,34.08H1.41V29.82H5.67Zm0-8.52H1.41V21.3H5.67Zm0-8.52H1.41V12.78H5.67Z"/><path class="cls-1" d="M42.59,8.52H36.91V45.44h1.42V41.18a1.41,1.41,0,0,1,1.36-1.46h1.48a1.43,1.43,0,0,1,1.42,1.42V45.4A1.44,1.44,0,0,0,44,44V9.94A1.43,1.43,0,0,0,42.59,8.52Zm0,25.56H38.33V29.82h4.26Zm0-8.52H38.33V21.3h4.26Zm0-8.52H38.33V12.78h4.26Z"/></g></g></g></svg>