<svg xmlns="http://www.w3.org/2000/svg" viewBox="0 0 45.24 37.84"><defs><style>.cls-1{fill:#fff;}</style></defs><title>icon__car</title><g id="Layer_2" data-name="Layer 2"><g id="Layer_1-2" data-name="Layer 1"><g id="New_Design" data-name="New Design"><path class="cls-1" d="M43,9.79h-.87A4,4,0,0,0,39.44,11,46.34,46.34,0,0,0,36,3.7,7.94,7.94,0,0,0,30.56.52,45.75,45.75,0,0,0,22.63,0h0A45.75,45.75,0,0,0,14.7.52,8,8,0,0,0,9.24,3.7a47.06,47.06,0,0,0-3.42,7.21A4,4,0,0,0,3.18,9.73H2.31A2.34,2.34,0,0,0,0,12v1.68A2.43,2.43,0,0,0,2.38,16.1H3.54a41.9,41.9,0,0,0-2,12.72v6.6A2.36,2.36,0,0,0,3.9,37.78H7a2.36,2.36,0,0,0,2.36-2.36h0V32.91q6.63.66,13.3.65t13.31-.65h0v2.57a2.36,2.36,0,0,0,2.36,2.36h3.06a2.36,2.36,0,0,0,2.36-2.36h0V28.91a41.9,41.9,0,0,0-2-12.72h1.13a2.43,2.43,0,0,0,2.41-2.37V12.1A2.33,2.33,0,0,0,43,9.79ZM14.77,24.91h-4.2a2,2,0,0,1-2-2h0V21.8a2,2,0,0,1,2-2,1.88,1.88,0,0,1,.53.07L15.3,21a2,2,0,0,1-.51,4Zm-4.65-11.6h0a50.71,50.71,0,0,1,3.13-6.83,3,3,0,0,1,2.3-1.15,41.88,41.88,0,0,1,7.08-.42,41.07,41.07,0,0,1,7.09.46A3.18,3.18,0,0,1,32,6.52a51.92,51.92,0,0,1,3.12,6.83h0q-6.25.57-12.52.56T10.12,13.31Zm26.57,9.6a2,2,0,0,1-2,2h-4.2a2,2,0,0,1-.51-4l4.21-1.12a2,2,0,0,1,2.43,1.44v0a2.39,2.39,0,0,1,.06.53Z"/></g></g></g></svg>