<?xml version="1.0" encoding="utf-8"?>
<!-- Generator: Adobe Illustrator 22.1.0, SVG Export Plug-In . SVG Version: 6.00 Build 0)  -->
<svg version="1.1" id="Layer_1" xmlns="http://www.w3.org/2000/svg" xmlns:xlink="http://www.w3.org/1999/xlink" x="0px" y="0px"
	 width="20px" height="20px" viewBox="0 0 20 20" style="enable-background:new 0 0 20 20;" xml:space="preserve">
<style type="text/css">
	.st0{fill:#BD6228;}
	.st1{fill:#FFFFFF;}
</style>
<path class="st0" d="M20,10c0,5.5-4.5,10-10,10S0,15.5,0,10S4.5,0,10,0c0,0,0,0,0,0C15.5,0,20,4.5,20,10"/>
<path class="st1" d="M6.3,5.8c-0.2,0-0.4-0.1-0.4-0.3c0,0,0,0,0-0.1c0-0.2,0.2-0.4,0.4-0.4c0.2,0,0.4,0.2,0.4,0.4c0,0,0,0,0,0
	C6.6,5.7,6.5,5.8,6.3,5.8C6.3,5.8,6.3,5.8,6.3,5.8 M10.2,9.1C8.5,8.9,8.4,4.7,6.5,4.7H4.1c0,0-0.4,1.4,0.8,1.8
	c0.6,0.2,0.8,0.1,1,0.9c0.3,1.7,0.7,3.4,0.7,4c0.1,0.6-1.8,1.6-1.8,2.1s2.2-0.1,2.8-0.4c1.2,1.9,3.5,2.2,3.5,1.6
	c0-0.5-0.4-0.6-0.6-1.1c-0.2-0.4-0.2-0.8-0.1-1.2l0.3,0.1c-0.1,0.3,0,0.6,0.1,0.9c0.9,0.4,2,0.5,3,0.2c1.2-0.2,0.4,2.9,2.1,0.9
	C16.6,13.7,18.2,10,10.2,9.1"/>
</svg>
