<svg id="Layer_1" data-name="Layer 1" xmlns="http://www.w3.org/2000/svg" viewBox="0 0 16.92 16.92"><defs><style>.cls-1{fill:#498dcb;}.cls-2{fill:#fff;}</style></defs><title>icon</title><path class="cls-1" d="M16.92,8.46A8.46,8.46,0,1,1,8.46,0a8.46,8.46,0,0,1,8.46,8.46"/><path class="cls-2" d="M12.48,7.76,11,6.29c.1-.39.51.17,1.08-.4a.78.78,0,0,0,0-1.26.78.78,0,0,0-1.25,0c-.5.5-.09.91-.4,1.08L9,4.24a1,1,0,0,0-1.41,0L4,7.76c-.39.38-.39,1,.36,1.76l.92.92c.3-.29.13-.77.5-1.14a1.07,1.07,0,0,1,1.56,0A1.11,1.11,0,0,1,7.46,11c-.37.37-.85.19-1.15.49l1.23,1.23a1,1,0,0,0,1.41,0l1.54-1.54c.39.09-.17.5.4,1.08a.8.8,0,0,0,1.26,0,.78.78,0,0,0,0-1.26c-.5-.49-.91-.09-1.08-.39l1.41-1.41a1,1,0,0,0,0-1.4"/></svg>