<svg id="Layer_1" data-name="Layer 1" xmlns="http://www.w3.org/2000/svg" viewBox="0 0 16.93 14.46"><defs><style>.cls-1{fill:#fff;}</style></defs><title>icon</title><path class="cls-1" d="M14.66,8.28a1.13,1.13,0,1,1,1.13-1.12,1.13,1.13,0,0,1-1.13,1.12m-12.4,0A1.13,1.13,0,1,1,3.38,7.16,1.12,1.12,0,0,1,2.26,8.28M14.66,4.9a2.24,2.24,0,0,0-2.18,1.71c-1.74.23-2.29,2.35-2.74,4.08-.33,1.3-.68,2.64-1.31,2.64-.42,0-.52-.15-.56-.21-.55-.76.34-3.43,1-5.58C9.87,4.69,10.76,2,9.83.71A1.85,1.85,0,0,0,8.25,0c-1.38,0-1.8,1.69-2.2,3.32s-.81,3-1.63,3.22a2.25,2.25,0,1,0,0,1.16c1.74-.22,2.28-2.37,2.71-4.11.27-1.1.6-2.46,1.1-2.46s.59.14.66.24c.6.83-.32,3.59-1.06,5.81-1,2.88-1.78,5.38-.9,6.6a1.71,1.71,0,0,0,1.48.68c1.51,0,2-1.77,2.41-3.49s.83-3,1.66-3.2A2.25,2.25,0,1,0,14.66,4.9"/></svg>