<svg xmlns="http://www.w3.org/2000/svg" viewBox="0 0 116.22 104.72"><defs><style>.cls-1{fill:#eee;}</style></defs><title>icon__creature--stingray</title><g id="Layer_2" data-name="Layer 2"><g id="Mobile_Menu" data-name="Mobile Menu"><path class="cls-1" d="M109.93,41.9c.93.39,6.63,5,5.92,5.26a5.78,5.78,0,0,1-3.51.5A9.61,9.61,0,0,1,107,44c-1.1-1.64-1.21-1.48-1.81-.82s-1.72.5-1.1,1.92a21.21,21.21,0,0,1,.44,12.92,1.76,1.76,0,0,0,.27,1.7s1.1,1.32,1.59.77,3.37-5.09,6.69-4.6,3.72.38,2.41,1.59A14.89,14.89,0,0,1,113,59.94c-1.69,1.2-3.72,2.05-4,2.67-.54,1.15-1.09,3.78-2.57,4s-2.63-.28-4.11,1.37S96.18,70.12,94,75.32s-2.63,8.55-8.82,14.35-10.63,11.45-12,14.19-.5-1.81.1-3.5S76.78,87.21,70.64,77c-3.48-5.77-9.4-12.16-13-17.8a31,31,0,0,1-3.8-8.77s-1.53-.14-3.62-.18c-7-.15-50.2-.37-50.2-.37s44.92-.12,51.35-.23a16.86,16.86,0,0,0,2.52-.21s-.11-4,8.11-12.71S76.79,17,73.93,6.9c-3.64-12.84.16-4.33,2.35-1.64s6.91,7.55,9.37,9.85A28.08,28.08,0,0,1,92.5,25.8c1.81,4.82,3.68,6.63,5.76,7.78a19,19,0,0,1,4.22,2.68c1.09,1,3.23,1,4,1.37s1.26,1.37,1.87,2.85c.38.93.6,1,1.53,1.42Z"/></g></g></svg>