<svg id="Layer_1" data-name="Layer 1" xmlns="http://www.w3.org/2000/svg" xmlns:xlink="http://www.w3.org/1999/xlink" viewBox="0 0 147.59 22.26"><defs><style>.cls-1{fill:#fff;}</style><symbol id="Logo" data-name="Logo" viewBox="0 0 147.59 22.26"><path class="cls-1" d="M49.15,15.59a.92.92,0,0,1-.89.95H42.42a.92.92,0,0,1-.9-.95V10.12a.93.93,0,0,1,.9-1h5.84a.93.93,0,0,1,.89,1Zm-.47-10H42a4.56,4.56,0,0,0-4.4,4.69v5.22a4.57,4.57,0,0,0,4.4,4.7h6.69a4.56,4.56,0,0,0,4.4-4.7V10.24a4.55,4.55,0,0,0-4.4-4.69"/><path class="cls-1" d="M64,16.54H59a.94.94,0,0,1-.91-1V10.14a.93.93,0,0,1,.91-1h5c4.12,0,4.69-3.08,4.69-3.62H58.55a4.56,4.56,0,0,0-4.4,4.7v5.21a4.55,4.55,0,0,0,4.4,4.69s8.13,0,10.09,0c0-.53-.57-3.61-4.69-3.61"/><path class="cls-1" d="M122.05,9.17h5c4.12,0,4.7-3.08,4.7-3.62H121.6a4.56,4.56,0,0,0-4.4,4.7v5.21a4.55,4.55,0,0,0,4.4,4.69s8.13,0,10.1,0c0-.53-.58-3.61-4.7-3.61h-5a1,1,0,0,1-.91-1V10.14a.94.94,0,0,1,.91-1"/><path class="cls-1" d="M111.74,5.55H105.4a4.55,4.55,0,0,0-4.4,4.69v9.92c.26,0,3.93-.82,3.93-4.36V10.12a.93.93,0,0,1,.9-1h5.48a.93.93,0,0,1,.9,1v1.36H110.5c-4.12,0-4.89,3.08-4.89,3.61h3.6l1.63,2.7c1.42,3.2,5.06,2.26,5.3,2.14-.21-.47-1.74-3-2.74-5.19a4.7,4.7,0,0,0,2.74-4.34v-.17a4.56,4.56,0,0,0-4.4-4.69"/><path class="cls-1" d="M138.29,11.48h-1.61V9.9c0-3.53-3.66-4.35-3.92-4.35V20.16c.26,0,3.92-.82,3.92-4.36v-.71H143c0-.53-.57-3.61-4.69-3.61"/><path class="cls-1" d="M147.58,5.55c-.25,0-3.92.82-3.92,4.35v5.9c0,3.54,3.67,4.36,3.92,4.36,0-.27,0-14.34,0-14.61"/><path class="cls-1" d="M95.54,5.55H89.2a4.56,4.56,0,0,0-4.4,4.69s0,8.94,0,9.92c.25,0,3.92-.82,3.92-4.36v-.7h6.6c0-.53-.57-3.62-4.69-3.62H88.73V10.12a.93.93,0,0,1,.9-1h5.48a.93.93,0,0,1,.9,1V15.8c0,3.54,3.67,4.36,3.93,4.36V10.24a4.55,4.55,0,0,0-4.4-4.69"/><path class="cls-1" d="M79.34,5.55H73a4.55,4.55,0,0,0-4.4,4.69v5.22a4.56,4.56,0,0,0,4.4,4.7H83.74c0-.53-.57-3.61-4.68-3.61H73.43a.92.92,0,0,1-.89-.95V10.12a.93.93,0,0,1,.89-1h5.48a.93.93,0,0,1,.9,1v1.36h-1.9c-4.12,0-4.7,3.09-4.7,3.62h6.13a4.55,4.55,0,0,0,4.4-4.69v-.17a4.55,4.55,0,0,0-4.4-4.69"/><path class="cls-1" d="M4.18,9.34c6,0,6.32-3.79,6.32-4.32,4.83,0,7.81,3.29,14.59,4.32A24.52,24.52,0,0,0,5.34,0,16.12,16.12,0,0,1,4.18,9.34"/><path class="cls-1" d="M0,18.23c1.57,1,6.46,4,16,4,6.37,0,12-3.06,13-4-8.08.42-9.69-1.48-12.9-1.48S11.78,18.67,0,18.23"/><path class="cls-1" d="M12.65,8.16c-1.29,3.18-4.5,4.16-9.69,4.16-.64,1.11-1.28,2.2-1.91,3.09,10.53.25,11.19-1.92,14.06-1.92,3.75,0,5.53,2.45,13.7,1.91-.35-.77-1.24-2.41-1.64-3.08-7.45-.16-11.6-4.16-14.52-4.16"/></symbol></defs><title>icon</title><use width="147.59" height="22.26" xlink:href="#Logo"/></svg>