<svg xmlns="http://www.w3.org/2000/svg" viewBox="0 0 138.8 145.32"><defs><style>.cls-1{fill:#f9f7f6;fill-rule:evenodd;}</style></defs><title>logo__cisco-brewery</title><g id="Layer_2" data-name="Layer 2"><g id="Layer_1-2" data-name="Layer 1"><path class="cls-1" d="M78.09,142.55c-.45.37-.71.93-1.33,1.12a2.43,2.43,0,0,1-2.84-3.3c.8-2.05,2.27-.13,3.57-.07a1.74,1.74,0,0,0,.53-.66c-.68-2.19-4.1-1.2-5,.07a3.48,3.48,0,0,0,2.77,5.61l1.32-.46c.7-.41,1-1.12,1.52-1.72v-.26l-.33-.33Z"/><path class="cls-1" d="M60.12,138.32l-2.64-.2c-.07.2-.14.4-.2.6a1.4,1.4,0,0,0,.86.33c.49.85-.11,2.57-.27,3.57a2.32,2.32,0,0,1-2.18.26c-.89-1.25.08-3.44.27-5.22l-2.58-.33-.26.66c.31.29.77.26,1,.66.74,2.38-2.55,5.18,1.85,5.68a5.86,5.86,0,0,0,1.52-.33c.08.25.17.49.26.73l.33.07,2-.47.13-.26.07-.4-.8-.13C59.08,142.53,60.05,139.68,60.12,138.32Z"/><path class="cls-1" d="M97.31,138.45l-3.37-1.78a.79.79,0,0,1-.2-.46l1.06-1.72,1-.59c-.44-1-2.87.24-3.77.72.07.18.14.36.2.53.21.28.36.12.79.07.14.7-.5,1.14-.72,1.72l-.4.13-2.64-6.54c-.78.25-1.3,1.24-1.92,1.72,0,.15,0,.3.07.46l.92.26c.66.4,2.23,5,2.65,6,.19.47.69,1.32.52,1.79-.15.27-.35.34-.66.46.07.18.14.35.2.53s.07.16.4.2l2.91-1.19c0-.2-.09-.4-.14-.6-.33-.14-.51,0-1,0-.38-.61-.95-1.56-.46-2.24l2.38,1.12c0,.13.09.26.13.4l-.46.19-.13.33.33.6a15.73,15.73,0,0,1,3.56-1.45c0-.07,0-.14.07-.2l-.2-.53Z"/><path class="cls-1" d="M41.56,131.92c-.81-.36-2,.29-2.91.39l-.27.53.73.53c-.22,1.81-1.64,2.64-1.52,4.75a2.81,2.81,0,0,0,1.92,1.13c.61-.28,1.07-.51,1.58-.73l.07-.2c-.18-.17-.35-.35-.53-.53a1.32,1.32,0,0,1-1.25.2l-.14-.26c-.33-1,1-2.84,1.39-3.63a4.45,4.45,0,0,1,1.59.66l.39-.07.33-.79-1.65-.8C41.25,132.62,41.49,132.47,41.56,131.92Z"/><path class="cls-1" d="M27.09,123.59l-1.52-.46-.2-.13c.16-.26.35-.41.27-.73-.3-.47-1.57-.73-2.12-.92l-.33.26.27.79a9.23,9.23,0,0,1-2.58,3.11,3.12,3.12,0,0,1-.92-.4l-.47.46v.14l2.78,2.37.53-.46c-.17-.43-.48-.46-.6-1l2.45-2.71c1,.27,1.92.4,2.11,1.46a11.45,11.45,0,0,1-2.45,3c-.62,0-.66-.25-1.12-.39h-.06l-.33.53,2.7,2.37h.2l.33-.59c-.23-.29-.41-.35-.46-.86C26.72,128,30.14,125.51,27.09,123.59Z"/><path class="cls-1" d="M112,128.88c-.55,1.34-2,1.17-3.24.79-.22-.28-.44-.36-.53-.79l3.31-2.58c-1.26-2.34-4.37-1.39-5,.86a3.58,3.58,0,0,0,3.69,4.62c1.68-.74,2.71-1.44,2.78-3.76l-.6-.2C112.17,128.12,112.21,128.45,112,128.88Zm-4.36-1a1.87,1.87,0,0,1,.06-1.13,1.28,1.28,0,0,1,1.19-.72l.6.39c-.16.73-1.1,1.1-1.59,1.52Z"/><path class="cls-1" d="M124.32,116.66c-.19.22-.19.35-.52.46-.71.16-2.71-1.73-3.31-2.18.19-.71.79-1.08,1.13-1.65l-.66-.6h-.27c-.35.47-.7.93-1.06,1.39-.45-.09-.51-.29-.85-.46l-.14-.13c-.57.44-.37,2.19-.26,3.1l.46.26.53-.52c1.8.38,2.28,2.48,4.49,2.57,1.18-.77,1.87-2,.93-3.43C124.08,115.62,124.26,116,124.32,116.66Z"/><path class="cls-1" d="M12.09,108.6a1.46,1.46,0,0,0-.66.59l1.26.73.46-.27a2,2,0,0,1,.86,1.13c-.07.7-.51.78-.92,1.12-1.21-.23-1.9-1.42-3.11-1.85-2.38,0-1.69,3,.26,3.5.39,1-.21,2.34,1.79,2.31l.39-.13a.52.52,0,0,0,.07-.53c-.14-.21-.31-.21-.59-.26l-.07-.2c.88-1.1,3-1.39,3.57-2.71C16.23,110.22,13.56,108.18,12.09,108.6ZM11.37,113c-.7-.08-1.36-.29-1.46-1a.9.9,0,0,1,.47-.47c.57-.17,1.11.52,1.58.73,0,.11,0,.22.07.33Z"/><path class="cls-1" d="M6.41,93.27,6.88,93A1.1,1.1,0,0,0,7,92.48L5.75,90.83l-.53.06a3,3,0,0,0-.13.86A13.81,13.81,0,0,1,1.39,93l-.66-.86-.66.13c.4,1.21.79,2.42,1.19,3.63.76-.29.44-.53.6-1.32l3.43-1a2.39,2.39,0,0,1,1.19,2.05,6.56,6.56,0,0,1-4,1.45c-.14-.26-.27-.53-.4-.79l-.73.07-.06.13,1,3.37.27.13c.53-.31.5-.3.46-1.12C4.74,98,9.58,97.8,7.47,94.46Z"/><path class="cls-1" d="M111.84,69.82a13.26,13.26,0,0,1-.92-4.09c-.1-.87,1-1.78,1.25-2.51a7.15,7.15,0,0,0-.53-5.35c-.56-1.08-2-2.92-3.17-3.31-.82-.27-1.34,0-1.91-.46l-2.38-3.5c.2-.93.39-1.85.59-2.77.21-3.42-3.57-6.36-6.47-6.87-.85-.15-1.35.59-2.38.33s-3.52-2.15-4.43-2.84c-.47-.37-.45-1.76-.72-2.32A6.84,6.84,0,0,0,87.86,33a8.09,8.09,0,0,0-5.35-.2l-1.39,1H81c-.93.16-1.25-.44-1.72-.6s-1.47.22-2.24-.07c-2.87-1.07-3.39-4.85-7.93-4a8.11,8.11,0,0,0-3.57,1.33l-.39.85A4.85,4.85,0,0,1,61.9,32.9l-3.63.39-1.39-.79a7.11,7.11,0,0,0-5.94.4,6.59,6.59,0,0,0-2.51,2.7c-.49,1.45-.64,2.21-1.72,3L43.08,41c-1,.28-2-.37-3.18-.13-3.89.79-4.65,3.74-4.55,8.06a17.39,17.39,0,0,0-2.18,2.84c-.39.61-.61,1.44-1.19,1.85a7.2,7.2,0,0,1-2,.66,6.55,6.55,0,0,0-3.31,3c-1.43,3.06,1.48,6,.73,9.18-.25,1-1.39,1.59-2.11,2.18a6.88,6.88,0,0,0-2,4.69C23,76.78,24.93,77,26.1,78.67A12.82,12.82,0,0,1,27.29,83c.09.69-.57,1.1-.8,1.52a8.16,8.16,0,0,0-.85,5.75,7,7,0,0,0,3.63,4.29l1.65.47a27.48,27.48,0,0,1,2,2.64,3.36,3.36,0,0,1,.8,2.84l-.6,1.06c-.26,1.32.87,3,1.39,3.69.95,1.36,2.89,2.1,4.82,2.45.86.15,2-.14,2.64.26a15,15,0,0,1,3.31,2.78c1.3,2.22.58,3.55,2.9,5.15,1.11.76,3.91,1.75,5.62,1.06a7,7,0,0,1,2.31-1c2.1-.22,3.55,1.19,5.61,1.32,1.16,1.74,2.78,3.43,5.55,3.5l1.72-.27c1.46-.35,3.26-1.38,3.83-2.64.66-.43,1.78-.22,2.77-.4l3.9-.79c2,.38,3.73,2.17,6.41,1.52,2-.47,4.4-2.37,5-4.23.22-.73-.27-1.33.2-2,.85-1.15,2.7-1.33,3.57-2.51,4.85.18,7.52-1.22,9-4.56a5.68,5.68,0,0,0,.4-3c-.09-.36-.18-.71-.26-1.06C104,99.6,105.29,98,106,97c.6-.8,2.21-.76,3.17-1.19A5.26,5.26,0,0,0,112,92.22a6.84,6.84,0,0,0-.46-4.69c-.32-.48-.84-.71-1-1.39a20.37,20.37,0,0,1,1-4.56c.59-1,2.22-1.83,2.77-3,.94-2,.36-6-.79-7.27C113,70.75,112.24,70.59,111.84,69.82ZM105.1,62c.37,1.63,1.26,2.86,1.26,4.69-1,.47-3,0-4.23-.13l-3.83.13c-.63,1.42.54,3.44,1.32,4,2.39-.25,4.83-.67,7.27-1H107c.16,1.12.31,2.25.46,3.37l-.19.39-2.32-2.24c-.67-.3-1.59.14-2.11.33l-5.61,2.51c-.6-.35-.43-1.81-.6-2.58-.35-1.54-.7-3.08-1.06-4.62-.28-.88-.57-1.76-.85-2.64l9,.72a16.06,16.06,0,0,0,1.19-3ZM96.51,48.68l.27-.06c2,1.47,7.2,9.1,7.53,12-2,.58-7.4-1.13-9,.13-.36.73-.71,1.46-1.06,2.18A2.83,2.83,0,0,1,93.08,61c2.42-1.55,5.76-2.36,8.46-3.57-.33-1.89-2.31-3.34-3.24-4.76-1,.3-4,3.86-5.15,4.76-.5.4-.7,1.05-1.46,1.19a8.61,8.61,0,0,1-1.91-2.12c.65-.53,2.32-.24,3.23-.13Q94.77,52.56,96.51,48.68Zm-10-7.59.13-.13,2.58,1.45c-.14,1.11-3.92,5.17-4.82,5.88v.2A7.27,7.27,0,0,0,88.06,51c.59-.91,3.76-6.2,4.36-6.41A9.69,9.69,0,0,1,95.19,47c-.16.12-3.12.17-3.63.27-1.24,2.35-1.34,5.71-2.38,8.19-1.1-.21-2-1.56-2.77-2.18A37.77,37.77,0,0,0,80,49.41v-.2C82.42,46,88.42,47.16,86.54,41.09ZM69.63,36.66a8.91,8.91,0,0,1,3.43.2,52.45,52.45,0,0,1,8.72,1.92c.93.33,2.66.65,3.11,1.45a13.41,13.41,0,0,1-3.37,2.44,35.25,35.25,0,0,0-3.9,3.17c.35.91.71,1.81,1.06,2.71l-.13.2L75.64,48l-.13-.13c.34-2.76,2.84-4.51,3.37-7.14-.86-1-3-.87-4.49-1.25H74c-.29,2.62-.57,5.24-.86,7.86-.79.43-2,0-3,0,0-.09,0-.18-.07-.27.74-.94,2-1.05,2.45-2.31-.07-.71-.45-.92-.66-1.45a29.39,29.39,0,0,1-2.25-6.54Zm5.22,15c7.27,2.32,12.87,6,15.92,12.48,2.35,5,2.36,11.63-1,15.59-2.24,2.64-8.41,3.16-11.63,1.26-2-1.19-3.13-3.79-3.76-6.35-1.18-4.72,4.34-11.58,9-8.52h.2l.06-.06c-.5-2.44-5.4-3.56-8.65-3A17,17,0,0,0,63.68,70a17.61,17.61,0,0,0-2.18,4.36C58,85,65.62,94.13,74,96.05c2.09.48,4.41.12,6.54.06v.13a35.38,35.38,0,0,1-6.47,2.45l-3.77.53c-2.57-.34-5.25,0-7.46-.73a24.73,24.73,0,0,1-14-10.5,29.4,29.4,0,0,1-3-6.81c-4.56-15,6.84-26.49,17.64-29.79A22.27,22.27,0,0,1,74.85,51.66ZM60.51,37.59c.6,2,.41,5.38.47,7.72l.26.14c1,.38,2.86-.38,3.9-.53.7-1.69-1-6.23-.6-7.86.36-.52,2.08-.31,2.78-.46h.46c-.34,1-1.42,1.19-1.65,2.64-.41,2.55,2.93,4.95,2.91,8l-3.24.13a25,25,0,0,0-6.74,1.85c-.42-.27-.3-1.52-.2-2.18.18-2.11.35-4.23.53-6.34L56,39.24l-.14-.2A10.32,10.32,0,0,1,60.51,37.59ZM43.87,46.17c.45-.88,1.84-1.54,2.64-2.11,1.61-1.14,6.16-4.43,8.19-4.69.84,1.65.36,4.85.6,6.8.17.91.35,1.81.52,2.71l1.85.6v.13a3.82,3.82,0,0,1-1.78.92c-.77-.45-2.93-5.53-3.24-6.67l-.19-.13A12.18,12.18,0,0,0,49,46.17c.94,1.72,3.67,4.49,3.83,6.48L51.2,54.1h-.26c0-.92.08-1.85.13-2.77l-2.25-1.39c-1.48-1-3-2.68-4.82-3.17A.6.6,0,0,1,43.87,46.17Zm-7,8.39H37l6.14,5.35h.27c.64-1.08,1.88-2,2.18-3.37l-6-5.28-.06-.2c1.21-1.32,1.85-2.92,3.37-4,.33.48-.43,3.69-.6,4.42,1,.94,5.83,3.1,7.33,3.57l.07.27c-2.2,2.91-4.3,4.76-5.81,8.58-.72-.21-4.85-5-5.22-5.74-.93-.41-2.56.28-3.7.33C34.64,57.12,36.25,55.45,36.87,54.56Zm-2.78,5.16c.71.19,1.06.86,1.45,1.38,1.65,2.15,3.67,5.47,7.47,4.23h.07c.11.67-.45,1.26-.6,1.92-1,.34-5.52-2-6.74-2.45-.77.68-1.5,3.32-1.45,4.89l7.53.33a8.66,8.66,0,0,1-.4,3.43C40,73.26,39.89,71.3,38.58,71c-1.1-.3-5.71,1.89-7.46,2.11h-.07C30.23,69.92,33.08,62,34.09,59.72ZM31.78,82.57c1.07-.49,5.66-.13,7.27-.26a10.68,10.68,0,0,0-.53-4.83c-1.77-.27-5.06,1.65-7.2,1.85h-.07c-.51-1-.4-3.41-.33-4.62A6.24,6.24,0,0,1,33.23,77c1.07.43,6.27-1.94,7.86-2.11l.14.06q.39,2.82.79,5.62l1.25,4.16v.07a5.67,5.67,0,0,1-2.37-.27l-6.41-1A33.9,33.9,0,0,0,33,87.26C32.56,87,31.75,83.59,31.78,82.57Zm8.85,17.77c-2.41-.84-6.26-8.93-7.2-11.82.61-.63,2.52-.25,3.37-.07,3.17.65,6,.48,6.74-2.31.6.22,1,1.47,1.25,2a36.39,36.39,0,0,1-6.41,3.3l-.06.26a10.86,10.86,0,0,0,2,3c1.85-.38,3.7-3.38,6.08-4a4.68,4.68,0,0,1,1.25,1.92v.06H45.06Zm10.31,8.13a16.24,16.24,0,0,1-3.51-1.92c.21-.9,4.81-5.47,5.69-6.14v-.2c-1.08-.71-2-1.93-3.31-2.38-1.51,1.15-4.24,5.7-5.55,6.14a7.11,7.11,0,0,1-2.44-2.18l.07-.13c.79-.06,2.13.56,2.9.13s.72-1.44,1-2.11L48.43,94h.26C51,95.6,54,99.37,57.08,99.81l.13.33c-1.46,2.13-5.85,2.91-6.74,5.15C49.94,106.65,51.05,107.52,50.94,108.47Zm13.87-3c.11,2,2.23,6.2,1.85,7.73a34.32,34.32,0,0,1-14.73-4v-.2c1.87-2.47,9-3.54,6.47-8.13v-.06l2.77,1q-1.58,2.94-3.17,5.88c.35.44,4,2,4.56,1.85.38-.25,1.39-5.95,1.46-6.87a5.82,5.82,0,0,1,3.1.26l.2.07C67,104,65.55,104.67,64.81,105.43Zm12.75,6.8c-.69-1.21-1.7-6.48-1.85-8.12-1-.23-2.29.34-3.31.46a4.83,4.83,0,0,0,.47,2l1.71,6.34-1.32.33H69l-.07-.06V113a21.78,21.78,0,0,1,3-3.17c-.28-1.74-1.54-3.62-2.38-5a4.39,4.39,0,0,1-.92-1.72,33.12,33.12,0,0,1,4-.46l5.22-1.13h.07l.06,2.91.6,5.15,3.23,1.19.07.33A8,8,0,0,1,77.56,112.23Zm8.52-2.64-2.18.86c-1.21-.3-.77-2.41-1-3.77-.48-3-.1-5.5-3.31-5.68l-.13-.2a8.77,8.77,0,0,1,3.17-1.38c.76.6,2.6,4.57,2.84,5.68,1.17.16,2.61-1.48,3.7-1.85,0-.07,0-.14.07-.2-.83-1.59-2.86-4.14-2.91-6.21l1.32-1,.14.06a19.61,19.61,0,0,1,.06,2.91l6.21,5.09C93.15,105.6,88,108.53,86.08,109.59Zm15.59-14.4a14.67,14.67,0,0,1-4.23-2.58C96.72,92.1,96,91.08,95,91c-1,.88-1.75,2.22-2.71,3v.27c2.45,1.32,4.3,3.41,6.6,5-.33,1.37-2,2.16-2.77,3.17h-.27c-.29-1,.46-2.61-.13-3.5-.89-1.33-5.69-2.23-7-3.7,1.53-3,4.39-4.82,5.48-8.32l.6-.13c1.78,1.91,3.56,3.83,5.35,5.74l3.37-1h.2A11,11,0,0,1,101.67,95.19Zm5.41-16.58c-.76,4.15-1.15,7.83-2.44,11.23-1.1-.25-5.06-4.61-5.55-5.68-1-.39-3.51,1.58-4,1.25-.19-.12.58-2.54.66-3,1.55-.63,5.88,2.07,7.6,2.18A14.94,14.94,0,0,0,105,79.33c-2.43-.81-5.66.14-8.46-.39a7.11,7.11,0,0,1,.33-3.57l.07-.2h.13l2.31,2.12,7.6-2.18.39.06A12.84,12.84,0,0,1,107.08,78.61Z"/><path class="cls-1" d="M136.28,82.44c-1.39.26-1.74,1.89-2.84,2.51a.92.92,0,0,1-.92-.4c-.28-1.22.54-1.8,1.58-1.91,0-.29.05-.58.07-.86l-1.65-.13c-.79,1.2-1.78,5.51,1.25,5,1.47-.24,1.87-1.92,2.91-2.65h.39l.47.6c0,.2,0,.4-.07.59-.36.8-1.38.55-1.52,1.52v.07l1.65.33C138.34,85.93,139,81.91,136.28,82.44Z"/><path class="cls-1" d="M137.87,68.17c.12-.36.31-.36.79-.33.18-.56-.65-1.66-.86-2.38-.23-.11-.27-.08-.66-.06a2,2,0,0,1-.53.92l-3.76.33-.27-.79h-.72c-.26,1,.18,2.68.33,3.76h.72c.05-.37.09-.74.13-1.12a10.41,10.41,0,0,1,3.31-.4l.86.8c.09.81-.19,1.22.26,1.85l.66.13C139.32,70.18,138.74,68.78,137.87,68.17Z"/><path class="cls-1" d="M4.1,63.28c1.54-.71,3.33-1.84,2.31-4.36l-.92-1.45-.33-.07-.4.33c.29,1.05,1.2,2.38,0,3.31C3.4,62.09.9,61.5.86,59.58a2,2,0,0,1,1.19-1.12A1.29,1.29,0,0,0,2.19,57a2.69,2.69,0,0,0-.93-.07C-1.3,59.22.23,63.4,4.1,63.28Z"/><path class="cls-1" d="M131.13,50.34l.39.06c.47,1.28.93,2.56,1.39,3.83,3.15.62,2.75-6.27-1.72-5.55-4.09.67-3.93,5.92-.19,6.48l.26-.6-1.12-.86A2.17,2.17,0,0,1,131.13,50.34Zm1.32-.14A1.27,1.27,0,0,1,134,51.85l-.33.4h-.4l-.79-2Z"/><path class="cls-1" d="M7,45l3.23,1.59a1.14,1.14,0,0,1-.06,1.19.88.88,0,0,0,.73.33c.52-1.1,1.05-2.2,1.58-3.3l-.59-.4-.4.59c-.91.4-4.26-1.88-5.35-2.24H6.08l-.33,2.57.33.14C6.41,45.51,6.7,45.16,7,45Z"/><path class="cls-1" d="M3,43.2c.35-.19.56-.22.73-.59a1,1,0,0,0,.07-1.06c-.15-.32-.32-.35-.6-.53l-.79.2a1.42,1.42,0,0,0-.33,1.39A1,1,0,0,0,3,43.2Z"/><path class="cls-1" d="M19,30.39c-1.35-.45-2.41.74-3.69.79a1.19,1.19,0,0,1-.34-.73c.47-1,1-.84,2.18-.72l.34-.53-1.26-1.06c-1,.57-3.77,3.1-1.59,4.49,1.39.89,4-1.53,4.56,0,0,.27-.09.53-.13.79a2.53,2.53,0,0,1-2.25.34l-.39.66,1.39.92c.57-.45,1.34-.62,1.78-1.19C20.45,33,20.47,30.89,19,30.39Z"/><path class="cls-1" d="M128.49,37.92c-.62-.88-1.24-1.76-1.85-2.65l-.6.27c-.07.4.13.55.2,1v.07a7.77,7.77,0,0,1-3,.59l-.06-.07c.16-1,1-1.69,1.32-2.57a1.37,1.37,0,0,1,.2-.13l.79.66.46-.27c.27-.56-.54-1.14-.92-1.65l-3.44-4.69c-.2.13-.4.26-.59.4.1.37.49.67.39,1.19l-3,5.21.27.47,3.56-.6.07.07a6.14,6.14,0,0,1-1.72,2.84v.26l.47.4a24.13,24.13,0,0,1,6-1,1.52,1.52,0,0,1,.79.73l.66-.34Zm-7.14-3.64H121c-.17-.91.91-1.77,1.19-2.57l.4-.2a2.87,2.87,0,0,1,.92,1.32L122.94,34Z"/><path class="cls-1" d="M30,23.52c1.9-.85,2.87-1.39,2.9-4.1l-.33-.13-.39.06c-.74,4.44-5.79,1.44-4.43-.79.68-1.32,3.17.31,2.91-1.85C26.79,14.47,24,23.29,30,23.52Z"/><path class="cls-1" d="M109.53,24.77l1-.2.13-.13-.06-.59c-2.37-.57-3.55-.67-2.52-3.44.14-.06.27-.13.4-.2l3.37,2.51c2.81-2.26-1.08-5.91-4.16-4S105.77,24.22,109.53,24.77Zm-.27-5.35a2.12,2.12,0,0,1,1.33-.26,2.38,2.38,0,0,1,.85,1.12c-.08.18-.17.35-.26.53-.85-.1-1.11-.76-1.78-1.06l-.14-.26Z"/><path class="cls-1" d="M94.86,15.59,94,14.93a9.51,9.51,0,0,1,1.19-3,2.11,2.11,0,0,1,1.32-.33,2.61,2.61,0,0,0,1,.66,1,1,0,0,0,1-.59A1.41,1.41,0,0,0,98,10.44a3.3,3.3,0,0,0-2,.13h-.07c-.07-.38.11-.59.2-1a8.2,8.2,0,0,0-2.51-.27l-.33.53.66.86c-.47,1-.89,3-1.78,3.57l-.6-.2-.39.66a11.94,11.94,0,0,0,3.5,1.45C94.69,16,94.78,15.79,94.86,15.59Z"/><path class="cls-1" d="M44.79,15.19c1.54-.56,2.52-.48,3.37-1.65a3.44,3.44,0,0,0-1.65-5.35C41.45,6.64,39.44,14.84,44.79,15.19Zm-.26-6c2.15-.54,4.27,3.47,1.32,4.82C43.28,14.07,41.88,9.85,44.53,9.18Z"/><path class="cls-1" d="M75.57,11.1a8.46,8.46,0,0,0,2.91.66c1.36-.64,2.54-.91,3-2.38,1-3-1.71-5.05-4.43-4.23L76.9,5l.72-5L75.11.53,75,1.06c.24.26.48.53.73.79-.49,3.15-1,6.3-1.46,9.45C75,11.49,75,11,75.57,11.1Zm1.19-4.89c3.58-1,4.46,3.33,1.19,4.56C76,10.52,75.94,7.93,76.76,6.21Z"/></g></g></svg>