<svg xmlns="http://www.w3.org/2000/svg" viewBox="0 0 174.75 33.97"><defs><style>.cls-1{fill:#f9f7f6;}.cls-2{fill:#55a8c1;}</style></defs><title>logo__contender</title><g id="Layer_2" data-name="Layer 2"><g id="Layer_1-2" data-name="Layer 1"><path class="cls-1" d="M118.59,3.39s5.56-.08,8.47-.08C137.77,3.31,137.44,16,137.44,18c0,16.23-9.92,15.43-9.92,15.43h-8.93ZM126.21,26h.67s2.82.71,2.82-7.84c0-1.75-.15-7.61-2.85-7.61h-.64ZM144.44,3.31h9.06v7.18h-6v3.68h5.33v7.36h-5.33v4h6v7.94H139.84V3.31ZM96.23,3.19l7.92.12,4.13,15.43V3.31h6.89s.17,30.17,0,30.17h-7.46l-4.37-14.74V33.53H96.23Zm-11.85.12h9.06v7.18h-6v3.68h5.33v7.36H87.48v4h6v7.94H79.78V3.31ZM61.13,3.12H78v7.69H73.41V33.48H65.67V10.81H61.13ZM40,3.19l7.92.12L52,18.74V3.31h6.89s.17,30.17,0,30.17H51.43L47.07,18.74V33.53H40Zm-13-1c11,0,10.42,14.26,10.42,15.13C37.36,34.59,28.74,34,26.66,34c-10.75,0-10-15.07-10-16.76C16.62,2,26.94,2.2,26.94,2.2ZM15.68,10.34a5.87,5.87,0,0,0-3.07-.88c-4.71,0-4.48,7.74-4.48,8.72,0,7.07,3,7.9,4.58,7.9a5.29,5.29,0,0,0,2.87-1v7.63a9,9,0,0,1-4.39,1.14c-6.35,0-9-5.67-9.8-7.54C-.13,22.83,0,17.81,0,17.17a17.88,17.88,0,0,1,2.69-10c2.86-4.25,6-4.85,8.19-4.88,3.44,0,4.8,1,4.8,1Zm147.94-.89v7.21s3.1.44,3.1-3.41C166.72,11.72,166.66,9.45,163.62,9.45Zm-7.51-6.14H166c6.92,0,8.33,6.41,8.35,8.85.05,6.73-4.47,8-4.47,8l4.9,13.34H167.2l-3.63-11.33V33.49h-7.46Z"/><path class="cls-2" d="M32.91,8.69s0,.08.07,0A8.73,8.73,0,0,1,36.61,5c.29-.16.51,0,.54,0s-.12.13-.26.25a10.85,10.85,0,0,0-1.75,1.86,1.58,1.58,0,0,0-.16.32l139.3,24.75.47,1.23L34.61,8.46a4.55,4.55,0,0,1-.28.61,7.32,7.32,0,0,1-.81,1.06,20.84,20.84,0,0,0-2.23,5.75c-.71,3.5.39,4.52.76,5.09a7.89,7.89,0,0,0,2.18,1.41A5.14,5.14,0,0,0,33,22.9c-.81.44-.88.66-.89.77s.12.17.38.31c1.06.55,3.3.4,3.94.4-.21-6.23,2.63-8.7,3.62-9.27a13.4,13.4,0,0,0-2,9.14c1.79,1.9,7.44,2.75,8.61,3-6.63.9-9.55-1.38-9.68-1.35s-.61.28-1.33.6a1.09,1.09,0,0,0,.66.66,2.67,2.67,0,0,1-1.73-.3,11.05,11.05,0,0,1-2.93.31c-.48,0-1-.15-1.2-.17a2.5,2.5,0,0,0-1-.08c-.32.11-1.21,0-1.16.13s.14.12.9.22c-.7.31-1.77-.1-1.66,0s.32.15.63.21a3.32,3.32,0,0,1-1.66-.11c.12.18.18.22.58.37a3.23,3.23,0,0,1-1.76-.27,1.85,1.85,0,0,0,.5.45,1.77,1.77,0,0,1-1.51-.59,1.2,1.2,0,0,0,.46.72,2,2,0,0,1-1.35-1.16,2.54,2.54,0,0,0,0,.93A3,3,0,0,1,23,26c-.23.2-.3.69-.34,1.39A4.29,4.29,0,0,1,22.38,25c-.16.14-.28.35-.42,1.1a3.82,3.82,0,0,1-.08-1.45,3.32,3.32,0,0,0-.38,1.53,4.64,4.64,0,0,1,.05-2.56,2.94,2.94,0,0,0-.86,1.76,5,5,0,0,1-.19-2.16A2.82,2.82,0,0,0,20,24.91a6.91,6.91,0,0,1-.29-2.51,2.75,2.75,0,0,0-.39,1.34,4.86,4.86,0,0,1-.2-2.15,2,2,0,0,0-.34.88,5.73,5.73,0,0,1,.08-1.68,2,2,0,0,0-.38.94,3.08,3.08,0,0,1,0-1.38,1.23,1.23,0,0,0-.29.6,2.42,2.42,0,0,1,.13-1.05,1,1,0,0,0,.15-.61c-.05-.17-.4-.36-.31-.46s.39-.34.36-.51a2.77,2.77,0,0,0-.24-.6h.62a2.13,2.13,0,0,1-.31-1.09,2.44,2.44,0,0,0,1.51.74,2.33,2.33,0,0,1-.85-1.55c.09.3.89.56,1.32.57,0-.14-.38-.7-.49-.82.08,0,.37.08.8.19a1.19,1.19,0,0,0-.57-.67,1.6,1.6,0,0,1,1,.35c.05-.25-.58-.87-.47-.85a1.47,1.47,0,0,1,.62.47,4.05,4.05,0,0,1-.27-1.35,2.36,2.36,0,0,0,1.54,1.53,2.67,2.67,0,0,1-1.09-1.85A2.46,2.46,0,0,0,23,14.63a2.56,2.56,0,0,1-1-2.19,1.64,1.64,0,0,0,.77.9,1.5,1.5,0,0,1-.32-.9c.18.55.78.53,1.25.49-.48-1.07-2.08-1.2-2.39-1.25a1.29,1.29,0,0,1,1.34-.26A.87.87,0,0,0,22,11a.72.72,0,0,1,.67,0A.78.78,0,0,0,22,10.7a2,2,0,0,1,1.79.18,2.37,2.37,0,0,0-1-1.62,1.26,1.26,0,0,1,.78.36,1.15,1.15,0,0,1,0-.65c.27.81,2,1.08,2.86,1a2.35,2.35,0,0,1,1.52-1A4.27,4.27,0,0,1,30.81,7.7s1.08-.91,1.68-1.54S37.89.49,38.08.28s.46-.32.51-.27-.1.36-.17.44C32.85,6.9,32.91,8.69,32.91,8.69Z"/></g></g></svg>