<svg xmlns="http://www.w3.org/2000/svg" viewBox="0 0 15.33 12.46"><defs><style>.cls-1{fill:#b7b7b7;}</style></defs><title>logo__twitter--grey</title><g id="Layer_2" data-name="Layer 2"><g id="Layer_2-2" data-name="Layer 2"><path class="cls-1" d="M0,11.05a8.93,8.93,0,0,0,4.82,1.41A8.89,8.89,0,0,0,13.76,3.1a6.09,6.09,0,0,0,1.57-1.63,6.38,6.38,0,0,1-1.81.5A3.2,3.2,0,0,0,14.91.23a6.28,6.28,0,0,1-2,.76A3.15,3.15,0,0,0,7.55,3.86,8.93,8.93,0,0,1,1.07.58a3.15,3.15,0,0,0,1,4.2,3.12,3.12,0,0,1-1.42-.4A3.15,3.15,0,0,0,3.14,7.51a3.22,3.22,0,0,1-1.42,0A3.14,3.14,0,0,0,4.66,9.74,6.36,6.36,0,0,1,0,11.05Z"/></g></g></svg>