<svg xmlns="http://www.w3.org/2000/svg" viewBox="0 0 32.33 37.32"><defs><style>.cls-1{fill:#ca1c27;}</style></defs><title>logo__youtube</title><g id="Layer_2" data-name="Layer 2"><g id="Layer_2-2" data-name="Layer 2"><path class="cls-1" d="M20.89,14.55a3.11,3.11,0,0,0,2.28-1.32V14.4h2V3.78h-2v8.06c-.24.3-.77.8-1.16.8s-.52-.29-.52-.72V3.78h-2v8.88C19.51,13.71,19.83,14.55,20.89,14.55Z"/><path class="cls-1" d="M12.1,11.75A2.56,2.56,0,0,0,15,14.6a2.7,2.7,0,0,0,2.83-2.85V6.55A2.77,2.77,0,0,0,15,3.69a2.72,2.72,0,0,0-2.9,2.86Zm2-5c0-.58.27-1,.83-1s.86.41.86,1v4.94c0,.58-.29,1-.82,1a.9.9,0,0,1-.87-1Z"/><polygon class="cls-1" points="7.39 14.4 9.61 14.4 9.61 8.56 12.2 0 9.94 0 8.52 5.75 6.98 0 4.74 0 7.39 8.56 7.39 14.4"/><path class="cls-1" d="M27.81,16.82H4.53A4.53,4.53,0,0,0,0,21.35V32.79a4.53,4.53,0,0,0,4.53,4.53H27.81a4.52,4.52,0,0,0,4.52-4.53V21.35A4.52,4.52,0,0,0,27.81,16.82ZM7.63,33.93H5.51V22.2H3.32v-2h6.5v2H7.63Zm7.53,0H13.28V32.81a4.05,4.05,0,0,1-1.08.94c-1,.58-2.4.57-2.4-1.49V23.81h1.88v7.75c0,.41.1.69.5.69s.87-.47,1.1-.76V23.81h1.88Zm7.24-2.1c0,1.25-.46,2.22-1.71,2.22a2.15,2.15,0,0,1-1.79-.9v.78H17V20.21h1.9v4.42a2.25,2.25,0,0,1,1.67-.95c1.38,0,1.83,1.17,1.83,2.54Zm7-2.73h-3.6V31c0,.76.06,1.42.82,1.42s.84-.54.84-1.42v-.7h1.94v.76c0,2-.84,3.13-2.82,3.13-1.8,0-2.72-1.31-2.72-3.13V26.53a2.78,2.78,0,0,1,2.86-3c1.8,0,2.68,1.15,2.68,3Z"/><path class="cls-1" d="M26.6,25.32c-.7,0-.84.5-.84,1.19v1h1.66v-1C27.42,25.83,27.27,25.32,26.6,25.32Z"/><path class="cls-1" d="M19.29,25.39a1.21,1.21,0,0,0-.39.31V32a1.94,1.94,0,0,0,.44.36.8.8,0,0,0,1-.11,1.14,1.14,0,0,0,.17-.7V26.33a1.32,1.32,0,0,0-.2-.78A.77.77,0,0,0,19.29,25.39Z"/></g></g></svg>