<svg xmlns="http://www.w3.org/2000/svg" viewBox="0 0 13.04 15.05"><defs><style>.cls-1{fill:#fff;}</style></defs><title>logo__youtube--white</title><g id="Layer_2" data-name="Layer 2"><g id="Layer_2-2" data-name="Layer 2"><path class="cls-1" d="M8.43,5.87a1.26,1.26,0,0,0,.92-.53v.47h.8V1.52h-.8V4.78c-.1.12-.31.32-.47.32S8.67,5,8.67,4.81V1.52h-.8V5.11C7.87,5.53,8,5.87,8.43,5.87Z"/><path class="cls-1" d="M4.88,4.74A1,1,0,0,0,6.05,5.89,1.09,1.09,0,0,0,7.19,4.74V2.64A1.11,1.11,0,0,0,6.05,1.49,1.1,1.1,0,0,0,4.88,2.64Zm.82-2c0-.23.11-.41.33-.41s.35.17.35.41v2c0,.24-.12.41-.33.41A.36.36,0,0,1,5.7,4.7Z"/><polygon class="cls-1" points="2.98 5.81 3.88 5.81 3.88 3.45 4.92 0 4.01 0 3.44 2.32 2.82 0 1.91 0 2.98 3.45 2.98 5.81"/><path class="cls-1" d="M11.22,6.78H1.83A1.83,1.83,0,0,0,0,8.61v4.62a1.82,1.82,0,0,0,1.83,1.82h9.39A1.81,1.81,0,0,0,13,13.23V8.61A1.82,1.82,0,0,0,11.22,6.78ZM3.08,13.69H2.22V9H1.34V8.15H4V9H3.08Zm3,0H5.36v-.45a1.9,1.9,0,0,1-.44.38c-.41.23-1,.23-1-.6V9.61h.76v3.12c0,.17,0,.28.2.28s.36-.19.45-.31V9.61h.76ZM9,12.84c0,.51-.19.9-.69.9a.88.88,0,0,1-.73-.37v.32H6.86V8.15h.76V9.94a.94.94,0,0,1,.68-.39c.55,0,.74.47.74,1Zm2.8-1.1H10.39v.77c0,.31,0,.57.33.57s.34-.21.34-.57v-.28h.78v.3c0,.79-.33,1.27-1.13,1.27s-1.1-.53-1.1-1.27V10.7a1.12,1.12,0,0,1,1.15-1.2c.73,0,1.08.46,1.08,1.2Z"/><path class="cls-1" d="M10.73,10.22c-.28,0-.34.19-.34.48v.41h.67V10.7C11.06,10.42,11,10.22,10.73,10.22Z"/><path class="cls-1" d="M7.78,10.24a.83.83,0,0,0-.16.13v2.54a.89.89,0,0,0,.18.14.31.31,0,0,0,.39,0,.43.43,0,0,0,.07-.28V10.62a.54.54,0,0,0-.08-.31A.32.32,0,0,0,7.78,10.24Z"/></g></g></svg>