<svg xmlns="http://www.w3.org/2000/svg" viewBox="0 0 17.1 13.9"><defs><style>.cls-1{fill:#59adec;}</style></defs><title>logo__twitter</title><g id="Layer_2" data-name="Layer 2"><g id="Layer_2-2" data-name="Layer 2"><path class="cls-1" d="M0,12.32A9.9,9.9,0,0,0,5.38,13.9a9.92,9.92,0,0,0,10-10.44A6.89,6.89,0,0,0,17.1,1.64a7.13,7.13,0,0,1-2,.56A3.54,3.54,0,0,0,16.63.26a7.16,7.16,0,0,1-2.23.85,3.51,3.51,0,0,0-6,3.2A10,10,0,0,1,1.19.64,3.51,3.51,0,0,0,2.28,5.33,3.53,3.53,0,0,1,.69,4.89,3.5,3.5,0,0,0,3.5,8.37a3.35,3.35,0,0,1-1.58.06,3.5,3.5,0,0,0,3.27,2.44A7,7,0,0,1,0,12.32Z"/></g></g></svg>