<svg xmlns="http://www.w3.org/2000/svg" viewBox="0 0 157.99 39.04"><defs><style>.cls-1{fill:#fff;}</style></defs><title>Asset 1</title><g id="Layer_2" data-name="Layer 2"><g id="Layer_1-2" data-name="Layer 1"><path class="cls-1" d="M1.1,8.46H26.24a.19.19,0,0,1,.19.18v6.1a1.06,1.06,0,0,1-.29.72L10.62,31.27a.13.13,0,0,0,.09.22H26.76a.52.52,0,0,1,.52.52v6.23a.2.2,0,0,1-.19.19H.19A.19.19,0,0,1,0,38.24v-6.1a.83.83,0,0,1,.23-.58l15.6-16.27a.08.08,0,0,0-.05-.13H4.6A3.83,3.83,0,0,1,.76,11.23c0-1,0-1.92,0-2.41A.34.34,0,0,1,1.1,8.46Z"/><path class="cls-1" d="M57.36,23.46c0-8.59-4.6-15.56-14.49-15.56s-14.5,7-14.5,15.56S32.8,39,42.87,39c7.53,0,11.91-3.91,13.63-9.49a.35.35,0,0,0-.33-.45H50.4a2.31,2.31,0,0,0-1.89.94c-.67.93-2.25,2.22-5.84,2.22-4.93,0-5.54-5.09-5.62-6.34a.26.26,0,0,1,.27-.28H56.57a.73.73,0,0,0,.74-.68C57.34,24.46,57.36,24,57.36,23.46ZM37.45,20.4a.33.33,0,0,1-.32-.34,5.71,5.71,0,0,1,11.38,0,.33.33,0,0,1-.33.34Z"/><path class="cls-1" d="M78.53,19.37V34.69a3.75,3.75,0,0,0,3.74,3.74h4.17A.53.53,0,0,0,87,37.9V21.14c0-2.22.46-13.09-14.33-13.09S59.23,20.91,59.23,21.14V38a.48.48,0,0,0,.48.48h7.6a.48.48,0,0,0,.48-.47c0-3,0-18.83,0-18.83s.27-4.3,5.31-4.3C73.08,14.83,78.53,14.36,78.53,19.37Z"/><path class="cls-1" d="M102.23,8.09c-12.11,0-12.45,6.81-12.39,8.24a.28.28,0,0,0,.27.26h7a.87.87,0,0,0,.72-.38c.73-1,2-1.76,4.79-1.76,3.12,0,4.57.86,4.57,2.42s-1.6,2-3.36,2.5c-2,.6-6.68.73-11.21,2.76-3.85,1.74-3.81,7.28-3.81,7.28,0,3.21.4,9.6,13,9.6s13.52-8.5,13.52-13.18V18.31C115.34,16,115.75,8.09,102.23,8.09Zm.34,24.27c-6.18,1.16-5.72-3.23-5.72-3.23s-.14-2.69,3.24-3.36A60.75,60.75,0,0,0,107,24a.27.27,0,0,1,.36.22C107.56,25.65,108,31.35,102.57,32.36Z"/><path class="cls-1" d="M157.41,38.49H149.9a.58.58,0,0,1-.58-.58V9.17a.58.58,0,0,1,.58-.58h2.46A5.63,5.63,0,0,1,158,14.22V37.91A.58.58,0,0,1,157.41,38.49Z"/><path class="cls-1" d="M158,6.58H149.9a.58.58,0,0,1-.58-.58V.58A.58.58,0,0,1,149.9,0h3.38A4.71,4.71,0,0,1,158,4.71Z"/><path class="cls-1" d="M144.58,13.93c-3.81-5.9-12.5-8.63-19-1.85V3.47A3.48,3.48,0,0,0,122.16,0h-4.81a.16.16,0,0,0-.16.15V25.83c0,6.35,3.28,13.21,14.88,13.21C143.16,39,151.64,27.85,144.58,13.93Zm-12.39,18.2c-3.62,0-6.56-3.66-6.56-8.46s2.94-8.7,6.56-8.7,6.56,3.9,6.56,8.7S135.81,32.13,132.19,32.13Z"/></g></g></svg>