<svg xmlns="http://www.w3.org/2000/svg" viewBox="0 0 14.89 14.89"><defs><style>.cls-1{fill:#fff;}</style></defs><title>instagram--white</title><g id="Layer_2" data-name="Layer 2"><g id="Layer_2-2" data-name="Layer 2"><path class="cls-1" d="M10.51,0H4.38A4.39,4.39,0,0,0,0,4.38v6.13a4.39,4.39,0,0,0,4.38,4.38h6.13a4.38,4.38,0,0,0,4.38-4.38V4.38A4.39,4.39,0,0,0,10.51,0ZM13.9,10.51a3.39,3.39,0,0,1-3.39,3.39H4.38A3.39,3.39,0,0,1,1,10.51V4.38A3.39,3.39,0,0,1,4.38,1h6.13A3.39,3.39,0,0,1,13.9,4.38Z"/><path class="cls-1" d="M7.45,3.79A3.66,3.66,0,1,0,11.1,7.45,3.66,3.66,0,0,0,7.45,3.79Zm0,6.32a2.67,2.67,0,1,1,2.66-2.66A2.67,2.67,0,0,1,7.45,10.11Z"/><circle class="cls-1" cx="11.55" cy="3.34" r="0.95"/></g></g></svg>